<svg fill="none" height="466" viewBox="0 0 466 466" width="466" xmlns="http://www.w3.org/2000/svg"><path d="m401.142 386.914c-.603.82-1.213 1.64-1.828 2.459l-.4-.3c-.304.405-.609.809-.916 1.214-.32.371-.643.74-.968 1.108l.375.331c-.659.745-1.327 1.481-2.003 2.209l-.366-.34c-.674.725-1.356 1.441-2.046 2.149l.358.349c-.694.712-1.396 1.415-2.105 2.109l-.35-.357c-.708.692-1.423 1.376-2.146 2.052l.341.365c-.726.678-1.46 1.348-2.201 2.01l-.333-.373c-.738.659-1.484 1.309-2.237 1.952l.325.38c-.756.645-1.518 1.282-2.288 1.91l-.316-.387c-.767.627-1.541 1.245-2.322 1.856l.308.394c-.782.611-1.57 1.214-2.365 1.81l-.3-.4c-.792.593-1.59 1.179-2.395 1.757l.292.406c-.808.58-1.621 1.152-2.441 1.717l-.284-.412c-.814.561-1.634 1.114-2.46 1.66l.276.417c-.829.548-1.663 1.088-2.502 1.62l-.268-.422c-.837.531-1.68 1.055-2.527 1.571l.26.427c-.847.516-1.699 1.025-2.556 1.526l-.253-.431c-.854.5-1.714.993-2.578 1.479l.245.435c-.867.488-1.738.968-2.614 1.441l-.237-.44c-.871.47-1.745.933-2.624 1.39l.23.444c-.881.457-1.767.908-2.656 1.352l-.224-.447c-.887.443-1.778.879-2.673 1.309l.217.45c-.895.43-1.793.852-2.695 1.269l-.21-.454c-.899.415-1.802.824-2.709 1.226l.203.457c-.909.403-1.82.8-2.735 1.19l-.196-.46c-.911.389-1.826.772-2.743 1.148l.19.462c-.919.377-1.841.748-2.766 1.113l-.183-.465c-.923.364-1.848.721-2.775 1.073l.177.467c-.929.353-1.86.699-2.794 1.039l-.171-.47c-.932.34-1.866.673-2.801 1.001l.165.471c-.938.329-1.878.651-2.82.968l-.159-.474c-.941.316-1.883.627-2.827.931l.153.476c-.945.305-1.893.605-2.841.899l-.148-.478c-.948.294-1.897.582-2.847.864l.143.479c-.954.284-1.909.561-2.865.834l-.137-.481c-.954.272-1.909.538-2.865.799l.132.482c-.959.262-1.919.518-2.88.769l-.126-.484c-.962.252-1.924.498-2.887.738l.121.485c-.964.241-1.928.477-2.893.707l-.116-.486c-.966.231-1.932.456-2.898.677l.111.487c-.972.222-1.943.438-2.914.65l-.106-.489c-.97.211-1.939.417-2.907.617l.102.49c-.976.202-1.95.399-2.924.591l-.097-.491c-.977.193-1.953.38-2.928.562l.092.492c-.976.183-1.951.36-2.924.533l-.087-.493c-.982.175-1.962.344-2.939.508l.082.493c-.984.165-1.966.325-2.946.48l-.078-.494c-.979.155-1.955.305-2.929.45l.074.495c-.991.147-1.979.29-2.964.427l-.069-.495c-.986.138-1.97.271-2.951.399l.065.496c-.983.129-1.964.252-2.941.371l-.06-.496c-.996.121-1.988.237-2.977.349l.056.497c-.99.111-1.976.218-2.958.32l-.052-.497c-.989.103-1.975.201-2.956.294l.047.498c-.999.095-1.994.185-2.983.271l-.043-.498c-.989.085-1.972.166-2.95.242l.039.498c-1.001.078-1.997.151-2.987.219l-.034-.499c-.997.069-1.989.133-2.974.192l.03.499c-.991.059-1.976.114-2.955.165l-.025-.5c-1.008.052-2.008.099-3.001.141l.021.499c-.994.042-1.981.08-2.96.112l-.016-.499c-1.006.033-2.002.062-2.99.086l.012.5c-1.003.024-1.997.043-2.982.058l-.007-.5c-.998.015-1.985.025-2.962.03l.002.5c-1.012.006-2.013.006-3.003.002l.002-.5c-.99-.004-1.969-.013-2.936-.027l-.007.5c-1.022-.015-2.03-.035-3.025-.06l.013-.5c-.993-.024-1.971-.054-2.935-.089l-.018.5c-1.024-.037-2.031-.079-3.02-.126l.023-.5c-.994-.047-1.971-.1-2.929-.157l-.03.499c-1.028-.062-2.034-.129-3.019-.201l.036-.499c-.993-.073-1.964-.152-2.912-.235l-.044.498c-1.034-.092-2.041-.189-3.02-.292l.053-.497c-1.011-.106-1.99-.218-2.938-.336l-.062.496c-1.017-.126-1.998-.259-2.941-.397l.073-.495c-1.036-.152-2.025-.311-2.965-.476l-.086.493c-1.035-.182-2.011-.371-2.927-.566l.105-.489c-1.037-.222-1.993-.451-2.864-.686l-.131.482c-1.079-.291-2.032-.593-2.854-.902l.177-.468c-.472-.178-.895-.357-1.27-.536l-.078-.038-.087-.008c-.504-.051-1.006-.104-1.507-.158l-.054.497c-1.005-.108-2.006-.224-3.003-.346l.061-.496c-.994-.122-1.985-.251-2.972-.386l-.067.495c-.989-.136-1.974-.278-2.955-.427l.075-.494c-.978-.149-1.953-.304-2.923-.466l-.082.494c-.991-.165-1.978-.337-2.96-.516l.089-.492c-.99-.18-1.975-.367-2.957-.561l-.097.491c-.983-.194-1.963-.395-2.938-.603l.104-.489c-.972-.208-1.941-.422-2.905-.642l-.111.487c-.967-.221-1.929-.449-2.886-.684l.119-.486c-.978-.239-1.952-.486-2.92-.739l-.127.484c-.973-.255-1.942-.516-2.906-.785l.135-.482c-.962-.267-1.919-.542-2.871-.823l-.142.48c-.954-.282-1.904-.571-2.85-.867l.15-.477c-.95-.297-1.895-.6-2.835-.911l-.157.475c-.957-.316-1.909-.639-2.856-.969l.164-.472c-.944-.329-1.884-.665-2.819-1.007l-.172.469c-.937-.343-1.87-.694-2.797-1.051l.179-.466c-.925-.356-1.845-.719-2.76-1.089l-.187.464c-.932-.376-1.859-.759-2.78-1.149l.195-.461c-.923-.39-1.84-.787-2.752-1.191l-.203.457c-.914-.405-1.823-.817-2.728-1.235l.21-.454c-.901-.417-1.798-.841-2.689-1.272l-.217.451c-.9-.435-1.794-.876-2.683-1.324l.225-.446c-.894-.451-1.784-.909-2.668-1.373l-.232.442c-.887-.465-1.768-.937-2.643-1.416l.24-.439c-.873-.477-1.741-.962-2.603-1.452l-.247.434c-.866-.492-1.725-.991-2.579-1.496l.254-.43c-.862-.51-1.718-1.027-2.569-1.55l-.262.426c-.853-.524-1.701-1.055-2.543-1.593l.269-.421c-.8396-.536-1.6735-1.079-2.5018-1.627l-.2762.416c-.8306-.55-1.6556-1.107-2.4748-1.67l.2831-.412c-.8229-.565-1.6401-1.137-2.4515-1.715l-.2901.407c-.8157-.581-1.6255-1.168-2.4294-1.762l.297-.402c-.8017-.592-1.5975-1.191-2.3875-1.795l-.3038.397c-.7923-.606-1.5786-1.218-2.3591-1.836l.3105-.392c-.781-.619-1.5561-1.244-2.3253-1.874l-.3171.386c-.774-.635-1.542-1.275-2.3041-1.922l.3236-.381c-.7599-.645-1.5138-1.296-2.2616-1.953l-.33.375c-.75-.658-1.4939-1.323-2.2318-1.993l.3362-.37c-.7367-.669-1.4675-1.345-2.1921-2.025l-.3424.364c-.729-.685-1.452-1.376-2.1687-2.072l.3484-.359c-.7148-.694-1.4234-1.394-2.1259-2.1l-.3544.353c-.7044-.708-1.4027-1.421-2.0948-2.14l.3601-.347c-.6903-.717-1.3744-1.439-2.0524-2.167l-.3658.341c-.6813-.732-1.3564-1.468-2.0252-2.211l.3714-.334c-.6669-.741-1.3277-1.486-1.9821-2.237l-.3769.329c-.6563-.753-1.3063-1.511-1.95-2.274l.3822-.323c-.6419-.761-1.2775-1.527-1.9069-2.298l-.3874.316c-.6313-.774-1.2564-1.553-1.875-2.337l.3925-.31c-.617-.781-1.2277-1.568-1.8321-2.36l-.3974.304c-.606-.794-1.2056-1.593-1.7988-2.396l.4022-.297c-.5916-.802-1.1769-1.608-1.7558-2.419l-.4069.291c-.58-.813-1.1536-1.63-1.7207-2.452l.4115-.284c-.5654-.819-1.1245-1.643-1.6772-2.472l-.4159.278c-.5541-.831-1.1018-1.666-1.643-2.506l.4202-.27c-.5398-.838-1.0732-1.68-1.6001-2.526l-.4244.264c-.5277-.847-1.0489-1.699-1.5636-2.555l.4285-.258c-.5127-.852-1.019-1.709-1.5188-2.57l-.4325.251c-.5011-.864-.9957-1.731-1.4839-2.603l.4363-.244c-.4869-.87-.9673-1.743-1.4413-2.62l-.4399.237c-.4746-.879-.9427-1.761-1.4043-2.648l.4435-.231c-.4593-.882-.912-1.768-1.3583-2.658l-.447.225c-.4474-.892-.8883-1.788-1.3226-2.688l.4502-.217c-.4333-.897-.86-1.798-1.2803-2.703l-.4534.211c-.4212-.907-.8358-1.817-1.2438-2.73l.4565-.204c-.4053-.908-.8041-1.819-1.1964-2.733l-.4595.197c-.3933-.917-.7801-1.837-1.1603-2.76l.4624-.191c-.3793-.921-.752-1.845-1.1182-2.773l-.4651.183c-.3671-.93-.7276-1.863-1.0816-2.799l.4677-.177c-.3515-.93-.6965-1.863-1.035-2.799l-.4702.17c-.339-.938-.6715-1.879-.9974-2.822l.4726-.163c-.3251-.942-.6437-1.886-.9557-2.833l-.4749.156c-.3128-.949-.619-1.901-.9186-2.857l.477-.149c-.2979-.95-.5892-1.902-.8741-2.857l-.4791.143c-.2848-.955-.563-1.913-.8347-2.873l.4811-.136c-.271-.958-.5355-1.919-.7935-2.882l-.483.13c-.2585-.966-.5105-1.933-.7559-2.904l.4848-.122c-.2444-.966-.4822-1.935-.7135-2.906l-.4864.116c-.2307-.969-.4549-1.94-.6726-2.913l.4879-.11c-.2171-.971-.4278-1.944-.6318-2.919l-.4894.102c-.2046-.978-.4026-1.958-.594-2.94l.4908-.095c-.191-.98-.3754-1.962-.5532-2.945l-.492.089c-.1771-.98-.3476-1.962-.5116-2.945l.4932-.082c-.1636-.981-.3207-1.964-.4713-2.949l-.4942.076c-.1509-.987-.2952-1.976-.433-2.966l.4952-.069c-.1374-.988-.2683-1.978-.3927-2.97l-.4961.062c-.124-.989-.2416-1.98-.3526-2.973l.4969-.055c-.1104-.988-.2144-1.977-.3118-2.968l-.4976.049c-.0976-.993-.1887-1.988-.2733-2.983l.4982-.043c-.0844-.993-.1622-1.988-.2335-2.985l-.4987.036c-.0713-.997-.1361-1.995-.1943-2.994l.4991-.029c-.0577-.991-.109-1.984-.1538-2.978l-.4995.022c-.0449-.996-.0833-1.993-.1152-2.991l.4998-.016c-.0318-.996-.0571-1.993-.0758-2.991l-.5.009c-.0187-1-.031-2.001-.0367-3.004l.5-.002c-.0056-.994-.0048-1.989.0025-2.984l-.5-.003c.0073-.997.0211-1.994.0413-2.992l.4999.011c.0203-.996.047-1.993.0802-2.99l-.4997-.016c.0333-.999.073-1.999.1194-3l.4994.023c.0461-.995.0987-1.991.1577-2.987l-.4991-.029c.0589-.994.1242-1.988.196-2.983l.4987.036c.0716-.992.1497-1.985.2342-2.978l-.4982-.043c.0848-.995.176-1.991.2737-2.987l.4976.049c.0975-.994.2014-1.988.3119-2.982l-.497-.056c.1099-.989.2261-1.978.3488-2.967l.4962.062c.1224-.987.2511-1.974.3863-2.96l-.4954-.068c.1355-.989.2773-1.978.4257-2.967l.4944.075c.1481-.987.3025-1.974.4634-2.961l-.4934-.08c.1606-.985.3277-1.971.5013-2.956l.4924.087c.1723-.978.3509-1.955.5359-2.933l-.4913-.093c.1854-.98.3772-1.959.5754-2.938l.49.099c.1978-.977.4019-1.954.6125-2.93l-.4888-.105c.211-.979.4284-1.957.6523-2.935l.4873.112c.2216-.968.4495-1.935.6838-2.902l-.486-.118c.2345-.968.4752-1.935.7223-2.901l.4844.123c.2466-.964.4995-1.928.7588-2.892l-.4828-.13c.2598-.965.5259-1.93.7985-2.894l.4811.136c.2713-.96.5488-1.919.8328-2.877l-.4794-.142c.2824-.954.5711-1.906.8661-2.858l.4775.148c.2944-.949.595-1.898.9019-2.846l-.4757-.154c.3076-.95.6214-1.899.9416-2.847l.4737.159c.3195-.946.6452-1.891.9773-2.835l-.4717-.166c.3306-.94.6674-1.879 1.0104-2.817l.4696.172c.3409-.932.6881-1.864 1.0414-2.794l-.4674-.177c.3541-.932.7143-1.863 1.0809-2.793l.4651.184c.3658-.928.7377-1.855 1.1159-2.78l-.4628-.189c.379-.927.7642-1.853 1.1557-2.778l.4605.195c.3864-.913.779-1.825 1.1777-2.735l-.458-.201c.3992-.911.8045-1.821 1.216-2.73l.4555.206c.4106-.906.8273-1.812 1.2502-2.716l-.4529-.212c.4238-.906.8537-1.81 1.2898-2.713l.4503.218c.4341-.899.8745-1.797 1.3209-2.693l-.4475-.223c.4427-.888.8915-1.775 1.3463-2.661l.4448.229c.4538-.884.9137-1.765 1.3797-2.646l-.4419-.234c.4669-.882.9398-1.762 1.4189-2.641l.439.239c.478-.877.9621-1.752 1.4523-2.625l-.436-.245c.4886-.871.9832-1.74 1.4839-2.607l.433.25c.4953-.858.9965-1.714 1.5037-2.568l-.4299-.255c.5081-.856 1.0223-1.711 1.5424-2.563l.4268.261c.519-.851 1.044-1.7 1.5749-2.546l-.4236-.266c.532-.849 1.0699-1.695 1.6139-2.54l.4203.271c.271-.421.5435-.841.8175-1.261.2853-.429.5711-.856.8574-1.283l-.415-.278c.5743-.855 1.1506-1.705 1.7286-2.548l.4125.282c.5772-.842 1.1562-1.679 1.7369-2.51l-.4098-.286c.5817-.832 1.1652-1.659 1.7505-2.479l.4071.29c.5843-.819 1.1705-1.633 1.7583-2.441l-.4043-.294c.5888-.81 1.1794-1.613 1.7717-2.411l.4015.298c.5913-.797 1.1844-1.588 1.7791-2.374l-.3986-.301c.5957-.787 1.1932-1.568 1.7923-2.344l.3956.306c.5982-.7742 1.198-1.5427 1.7994-2.3056l-.3926-.3096c.6024-.7642 1.2065-1.5228 1.8123-2.2759l.3896.3134c.6373-.7924 1.2765-1.5785 1.9175-2.3585l-.3863-.3174c.6511-.7925 1.3041-1.5786 1.959-2.3583l.3829.3215c.6536-.7784 1.3091-1.5504 1.9664-2.3162l-.3794-.3256c.6584-.7672 1.3186-1.528 1.9805-2.2826l.3759.3298c.6608-.7532 1.3232-1.5001 1.9874-2.2407l-.3722-.3338c.6654-.7421 1.3325-1.4778 2.0014-2.2074l.3685.3379c.6676-.7281 1.3369-1.4501 2.0078-2.1658l-.3648-.342c.6722-.7171 1.346-1.4279 2.0215-2.1326l.3609.346c.6742-.7034 1.35-1.4006 2.0274-2.0916l-.357-.35c.7083-.7226 1.4184-1.4385 2.1302-2.1477l.3529.3542c.7236-.721 1.449-1.4351 2.1762-2.1423l-.3486-.3584c.7285-.7086 1.4589-1.4103 2.1909-2.1051l.3442.3626c.7305-.6934 1.4628-1.3799 2.1966-2.0596l-.3397-.3669c.7354-.6811 1.4724-1.3553 2.2111-2.0228l.3353.371c.7371-.666 1.4759-1.3253 2.2163-1.9777l-.3306-.3752c.7419-.6538 1.4856-1.3009 2.2306-1.9412l.326.3792c.743-.6389 1.488-1.2711 2.235-1.8966l-.321-.3832c.754-.6318 1.51-1.2568 2.267-1.8749l.316.3873c.791-.6462 1.585-1.2849 2.379-1.9162l-.311-.3915c.797-.6327 1.595-1.258 2.395-1.8759l.305.3957c.798-.6165 1.598-1.2256 2.399-1.8274l-.3-.3997c.802-.6031 1.607-1.1989 2.413-1.7873l.295.4038c.804-.587 1.609-1.1668 2.416-1.7393l-.289-.4078c.809-.5738 1.619-1.1402 2.431-1.6995l.283.4118c.81-.558 1.621-1.1087 2.434-1.6521l-.278-.4156c.816-.5459 1.634-1.0845 2.452-1.616l.273.4195c.854-.5543 1.709-1.1007 2.566-1.6393l-.266-.4233c.859-.5399 1.72-1.0719 2.582-1.5961l.259.4272c.86-.5229 1.721-1.038 2.584-1.5454l-.254-.4309c.864-.5086 1.73-1.0094 2.597-1.5025l.247.4346c.865-.4919 1.732-.976 2.599-1.4525l-.241-.4382c.87-.4777 1.741-.9476 2.613-1.4099l.234.4417c.869-.4611 1.74-.9146 2.612-1.3605l-.227-.4451c.885-.4525 1.771-.8972 2.658-1.3342l.221.4486c.908-.4473 1.817-.8864 2.728-1.3174l-.214-.4519c.913-.4321 1.827-.8561 2.742-1.272l.207.4552c.912-.4148 1.826-.8216 2.74-1.2203l-.2-.4583c.917-.3998 1.835-.7915 2.754-1.1752l.193.4614c.917-.3827 1.834-.7574 2.752-1.1242l-.185-.4643c.921-.3678 1.842-.7276 2.765-1.0794l.178.4671c.92-.3509 1.841-.694 2.762-1.0292l-.17-.4698c.948-.345 1.897-.6816 2.847-1.01l.163.4726c.951-.3287 1.903-.6491 2.855-.9613l-.156-.4752c.955-.313 1.911-.6178 2.867-.9143l.148.4775c.954-.2958 1.908-.5834 2.863-.8629l-.141-.4798c.958-.2802 1.916-.5523 2.874-.8163l.133.4821c.956-.2633 1.913-.5185 2.87-.7656l-.125-.4841c.959-.2478 1.919-.4876 2.88-.7193l.117.486c.971-.2343 1.943-.4605 2.915-.6784l-.109-.4879c.982-.2202 1.964-.4321 2.946-.6357l.102.4896c.98-.2031 1.96-.3979 2.94-.5846l-.093-.4912c.983-.1872 1.966-.3661 2.95-.537l.085.4927c.981-.1704 1.962-.3326 2.944-.4868l-.078-.4939c.984-.1546 1.968-.3011 2.952-.4395l.069.4951c.982-.1381 1.963-.2681 2.945-.3902l-.062-.4961c.992-.1234 1.984-.2387 2.976-.3459l.054.4971c.995-.1075 1.99-.2069 2.985-.2982l-.046-.4979c.997-.0915 1.995-.1749 2.992-.2503l.038.4986c.994-.0752 1.988-.1423 2.982-.2015l-.029-.4991c.996-.0593 1.993-.1106 2.989-.1539l.022.4995c.993-.0433 1.986-.0786 2.979-.106l-.014-.4998c.995-.0275 1.99-.0471 2.985-.0589l.006.4999c.996-.0118 1.992-.0157 2.988-.0117l.001-.5c1.002.0039 2.002.0158 3.002.0355l-.01.4999c.997.0197 1.994.0472 2.99.0824l.018-.4996c.998.0353 1.996.0785 2.993.1294l-.025.4993c.995.0508 1.988.1093 2.982.1754l.033-.4989c.995.0664 1.99.1404 2.984.222l-.041.4983c.992.0815 1.982.1705 2.972.2671l.048-.4976c.994.097 1.987.2016 2.98.3138l-.057.4969c.991.1119 1.98.2315 2.968.3585l.064-.4959c.991.1273 1.98.2621 2.969.4044l-.071.4949c.986.142 1.971.2913 2.954.4481l.079-.4938c.986.1571 1.971.3216 2.955.4935l-.086.4925c.981.1715 1.961.3502 2.939.5363l.094-.4912c.981.1864 1.96.3802 2.939.5812l-.101.4898c.975.2003 1.949.4079 2.921.6226l.108-.4882c.975.2151 1.947.4375 2.919.6669l-.115.4866c.969.2289 1.937.4649 2.902.7079l.122-.4849c.969.2436 1.935.4943 2.9.7519l-.129.4831c.963.257 1.924.521 2.883.7919l.136-.4812c.962.2716 1.921.5501 2.879.8355l-.143.4792c.956.2847 1.91.5762 2.862.8746l.15-.4771c.951.2982 1.901.6032 2.848.915l-.156.4749c.945.3109 1.888.6285 2.829.9528l.163-.4728c.943.325 1.885.6567 2.824.995l-.169.4704c.937.3375 1.872.6817 2.804 1.0323l.176-.468c.935.3515 1.868.7095 2.799 1.0741l-.182.4655c.928.3637 1.854.7339 2.779 1.1106l.188-.463c.926.3775 1.85.7614 2.772 1.1518l-.195.4604c.915.3877 1.829.7818 2.739 1.1821l.201-.4577c.913.4012 1.823.8086 2.731 1.2223l-.207.455c.905.4127 1.809.8317 2.709 1.2568l.214-.4522c.903.4261 1.803.8583 2.7 1.2967l-.219.4493c.896.4374 1.789.8809 2.679 1.3305l.226-.4464c.892.4506 1.782.9072 2.669 1.3698l-.231.4434c.885.4616 1.767.9292 2.647 1.4028l.237-.4403c.877.4722 1.752.9503 2.623 1.4342l-.243.4372c.87.4828 1.737.9714 2.6 1.4659l.249-.434c.866.4955 1.728.9968 2.588 1.5039l-.254.4307c.858.5059 1.714 1.0176 2.566 1.5349l.259-.4274c.854.5185 1.705 1.0426 2.553 1.5724l-.265.424c.846.5287 1.689 1.0629 2.529 1.6028l.27-.4206c.842.5409 1.68 1.0875 2.516 1.6396l-.276.4171c.829.5481 1.656 1.1017 2.478 1.6607l.281-.4136c.825.5601 1.646 1.1256 2.464 1.6964l-.286.4101c.817.5696 1.63 1.1447 2.439 1.725l.292-.4064c.811.5815 1.619 1.1684 2.424 1.7605l-.297.4027c.803.5909 1.603 1.187 2.399 1.7883l.301-.399c.798.6026 1.592 1.2104 2.383 1.8233l-.307.3952c.789.6116 1.575 1.2284 2.357 1.8503l.311-.3913c.78.6204 1.556 1.2458 2.329 1.8762l-.316.3874c.771.6289 1.538 1.2628 2.301 1.9017l.321-.3835c.765.6402 1.527 1.2853 2.284 1.9353l-.325.3795c.756.6487 1.508 1.3022 2.257 1.9606l.33-.3754c.75.6597 1.496 1.3243 2.239 1.9937l-.335.3714c.741.668 1.477 1.3408 2.21 2.0183l.34-.3672c.734.679 1.465 1.3626 2.191 2.051l-.344.3629c.723.6844 1.441 1.3734 2.155 2.067l.349-.3587c.715.6946 1.426 1.3939 2.133 2.0976l-.352.3545c.705.7023 1.407 1.4091 2.104 2.1205l.357-.35c.699.7128 1.394 1.4301 2.084 2.1518l-.361.3457c.689.7203 1.374 1.445 2.054 2.1741l.366-.3412c.682.7306 1.36 1.4656 2.033 2.2049l-.37.3367c.672.7378 1.34 1.4799 2.003 2.2264l.374-.3321c.662.7457 1.32 1.4958 1.974 2.25l-.378.3275c.652.752 1.299 1.5081 1.942 2.2685l.382-.3228c.644.7619 1.284 1.528 1.919 2.2981l-.386.3181c.634.7686 1.263 1.5413 1.887 2.318l.39-.3133c.626.7784 1.247 1.5603 1.864 2.3473l-.394.308c.615.785 1.226 1.574 1.832 2.367l.397-.304c.607.794 1.21 1.593 1.807 2.395l-.401.299c.595.798 1.185 1.601 1.77 2.407l.405-.293c.586.807 1.167 1.617 1.743 2.432l-.409.289c.575.813 1.145 1.629 1.71 2.45l.412-.284c.566.822 1.127 1.648 1.683 2.477l-.415.279c.555.828 1.105 1.659 1.65 2.494l.418-.273c.546.837 1.087 1.677 1.623 2.521l-.422.268c.535.842 1.064 1.688 1.588 2.538l.426-.263c.524.85 1.044 1.703 1.558 2.559l-.429.257c.512.853 1.019 1.71 1.52 2.57l.432-.252c.502.861 1 1.726 1.491 2.595l-.435.246c.491.867.977 1.736 1.457 2.61l.438-.241c.481.875.957 1.753 1.427 2.635l-.441.235c.469.88.933 1.763 1.391 2.649l.444-.23c.46.888.913 1.779 1.362 2.674l-.447.224c.446.891.887 1.785 1.323 2.683l.449-.218c.435.896.865 1.795 1.288 2.698l-.452.212c.422.901.839 1.804 1.251 2.711l.455-.207c.412.909.819 1.82 1.22 2.735l-.458.2c.4.913.794 1.828 1.182 2.746l.461-.194c.389.92.773 1.843 1.15 2.769l-.463.189c.377.923.748 1.85 1.113 2.78l.465-.183c.366.931.725 1.865 1.079 2.802l-.468.176c.351.929.696 1.861 1.034 2.795l.471-.17c.339.936.673 1.875 1 2.817l-.472.164c.327.94.648 1.882.963 2.827l.474-.158c.315.947.625 1.896.928 2.848l-.476.152c.302.95.598 1.902.889 2.857l.478-.145c.291.957.575 1.916.854 2.878l-.481.139c.278.959.55 1.921.815 2.886l.482-.133c.264.96.521 1.922.773 2.886l-.484.126c.25.961.494 1.924.732 2.888l.485-.119c.239.967.471 1.936.696 2.908l-.487.113c.225.969.444 1.941.656 2.915l.489-.107c.212.976.419 1.954.618 2.934l-.49.1c.2.978.392 1.958.579 2.94l.491-.093c.187.984.367 1.97.54 2.958l-.492.087c.172.98.338 1.962.497 2.947l.493-.08c.159.98.311 1.962.456 2.945l-.495.073c.145.982.284 1.965.415 2.95l.496-.066c.132.987.258 1.977.377 2.968l-.497.059c.119.989.231 1.98.336 2.972l.497-.053c.105.995.204 1.991.296 2.989l-.498.046c.092.995.177 1.992.255 2.991l.499-.039c.078 1.001.149 2.003.214 3.006l-.499.032c.064.986.12 1.973.17 2.961l.5-.025c.05.99.093 1.982.13 2.976l-.499.018c.036.992.066 1.984.089 2.978l.5-.011c.023.996.04 1.994.049 2.993l-.5.005c.01.997.012 1.995.008 2.995l.5.002c-.004 1.002-.015 2.005-.034 3.01l-.499-.009c-.019 1.002-.044 2.005-.076 3.01l.5.016c-.032.996-.07 1.993-.116 2.991l-.499-.023c-.045.985-.097 1.971-.155 2.958l.499.03c-.059.989-.124 1.979-.196 2.971l-.499-.036c-.072.989-.151 1.979-.237 2.971l.498.043c-.086.993-.179 1.988-.278 2.984l-.498-.05c-.1.993-.206 1.988-.32 2.983l.497.057c-.114.997-.234 1.996-.362 2.995l-.496-.063c-.128.997-.262 1.995-.404 2.994l.495.07c-.139.979-.284 1.959-.437 2.94l-.494-.077c-.151.973-.309 1.946-.474 2.92l.493.083c-.165.976-.336 1.953-.515 2.931l-.492-.09c-.178.975-.363 1.951-.555 2.928l.49.097c-.192.979-.391 1.958-.597 2.939l-.49-.103c-.205.978-.418 1.957-.637 2.936l.487.109c-.22.982-.447 1.964-.681 2.947l-.486-.116c-.233.981-.474 1.962-.722 2.943l.485.123c-.241.955-.488 1.911-.742 2.867l-.484-.128c-.252.948-.51 1.897-.776 2.847l.482.134c-.266.952-.539 1.904-.818 2.857l-.48-.141c-.279.95-.564 1.901-.857 2.852l.478.147c-.292.953-.592 1.907-.898 2.861l-.476-.153c-.306.952-.618 1.904-.937 2.856l.474.159c-.32.955-.647 1.91-.98 2.865l-.472-.165c-.333.953-.673 1.906-1.02 2.86l.47.171c-.338.931-.683 1.863-1.035 2.795l-.468-.176c-.345.915-.697 1.83-1.055 2.745l.466.182c-.359.917-.724 1.834-1.095 2.751l-.464-.187c-.371.915-.748 1.831-1.131 2.746l.461.194c-.385.917-.776 1.835-1.173 2.753l-.459-.199c-.397.916-.8 1.832-1.21 2.748l.457.204c-.411.918-.828 1.836-1.251 2.753l-.454-.209c-.423.916-.853 1.832-1.289 2.748l.452.215c-.436.917-.879 1.834-1.329 2.75l-.449-.22c-.428.873-.862 1.746-1.302 2.618l.447.225c-.441.875-.888 1.749-1.341 2.623l-.444-.23c-.453.872-.911 1.744-1.375 2.617l.441.235c-.465.874-.937 1.747-1.414 2.621l-.439-.24c-.477.872-.96 1.744-1.449 2.616l.436.244c-.489.874-.986 1.747-1.488 2.62l-.433-.25c-.502.872-1.009 1.743-1.523 2.614l.43.254c-.514.873-1.036 1.745-1.563 2.617l-.428-.259c-.526.87-1.058 1.74-1.597 2.609l.425.264c-.511.825-1.028 1.65-1.551 2.475l-.422-.268c-.522.824-1.049 1.647-1.582 2.47l.419.272c-.534.824-1.074 1.648-1.619 2.472l-.417-.276c-.545.823-1.095 1.645-1.651 2.466l.414.281c-.557.823-1.12 1.646-1.688 2.468l-.412-.284c-.567.821-1.141 1.642-1.72 2.462l.409.289c-.581.821-1.167 1.643-1.759 2.464l-.405-.293c-.591.82-1.188 1.639-1.79 2.458z" stroke="#fee9d1" stroke-dasharray="3 3"/><path d="m370.877 358.083c-.599.819-1.205 1.638-1.818 2.456l-.4-.3c-.182.243-.365.486-.548.729-.122.161-.243.322-.365.483-.319.369-.641.737-.965 1.101l.373.332c-.659.741-1.328 1.472-2.008 2.192l-.364-.343c-.677.717-1.364 1.423-2.06 2.12l.353.354c-.701.7-1.411 1.39-2.132 2.071l-.343-.364c-.717.677-1.444 1.344-2.179 2.001l.333.373c-.739.66-1.486 1.309-2.243 1.949l-.323-.382c-.752.637-1.514 1.264-2.284 1.882l.313.39c-.773.619-1.554 1.229-2.343 1.83l-.303-.398c-.784.596-1.576 1.184-2.376 1.762l.293.405c-.804.581-1.615 1.152-2.433 1.714l-.283-.413c-.812.558-1.631 1.106-2.457 1.646l.273.418c-.829.542-1.666 1.074-2.509 1.598l-.263-.425c-.838.52-1.682 1.032-2.532 1.535l.254.43c-.852.504-1.71.999-2.574 1.486l-.245-.436c-.86.485-1.726.961-2.598 1.428l.237.441c-.872.468-1.749.927-2.631 1.378l-.228-.445c-.879.45-1.763.891-2.653 1.324l.219.45c-.889.434-1.784.859-2.682 1.277l-.211-.454c-.895.416-1.795.824-2.699 1.225l.203.457c-.906.401-1.816.795-2.729 1.18l-.195-.46c-.91.384-1.823.76-2.74 1.129l.187.464c-.919.37-1.842.733-2.767 1.088l-.179-.467c-.923.354-1.848.7-2.777 1.039l.172.47c-.931.34-1.864.673-2.8.999l-.164-.473c-.934.325-1.87.643-2.808.954l.157.475c-.941.312-1.884.616-2.829.914l-.15-.477c-.943.297-1.887.588-2.833.871l.144.479c-.951.285-1.904.563-2.857.834l-.137-.48c-.951.27-1.903.534-2.855.792l.13.482c-.958.259-1.918.512-2.877.757l-.124-.484c-.959.246-1.919.485-2.878.718l.117.485c-.963.234-1.927.461-2.89.682l-.112-.487c-.967.222-1.934.437-2.9.646l.105.489c-.968.209-1.935.412-2.901.609l-.1-.49c-.974.199-1.948.391-2.919.578l.094.491c-.975.186-1.948.367-2.919.541l-.088-.492c-.978.176-1.953.345-2.926.508l.083.493c-.981.165-1.96.324-2.937.477l-.077-.494c-.978.153-1.954.3-2.926.441l.071.495c-.988.143-1.973.28-2.954.412l-.067-.496c-.979.131-1.955.257-2.927.376l.061.497c-.994.122-1.984.238-2.97.349l-.055-.497c-.985.11-1.965.215-2.94.313l.05.498c-.995.101-1.985.196-2.969.285l-.045-.498c-.99.09-1.974.173-2.952.252l.04.498c-.996.08-1.986.153-2.968.221l-.035-.498c-.994.069-1.982.132-2.961.189l.029.499c-.997.059-1.987.111-2.967.158l-.024-.499c-.999.047-1.989.089-2.969.125l.019.5c-1 .037-1.989.068-2.968.093l-.013-.5c-1.001.026-1.992.046-2.971.06l.008.5c-1.004.015-1.995.023-2.973.026l-.001-.5c-1.002.003-1.99 0-2.964-.009l-.005.5c-1.009-.01-2.004-.025-2.982-.046l.01-.5c-.997-.022-1.978-.05-2.941-.084l-.017.5c-1.02-.036-2.021-.078-3-.126l.025-.5c-1.002-.049-1.982-.105-2.939-.167l-.032.499c-1.018-.066-2.009-.139-2.974-.218l.041-.498c-1.021-.084-2.011-.175-2.968-.272l-.051.498c-1.017-.104-1.998-.214-2.941-.332l.062-.496c-1.012-.126-1.979-.259-2.899-.4l-.075.494c-1.042-.158-2.024-.326-2.943-.501l.093-.492c-1.043-.198-2.003-.407-2.874-.622l-.12.485c-1.099-.272-2.062-.557-2.877-.85l.169-.47c-.489-.176-.919-.353-1.289-.53l-.079-.038-.087-.009c-.504-.051-1.007-.104-1.508-.159l-.055.497c-1.005-.11-2.006-.229-3.002-.356l.063-.496c-.993-.126-1.981-.261-2.964-.404l-.071.495c-.986-.144-1.967-.295-2.943-.454l.08-.494c-.988-.161-1.971-.331-2.948-.509l-.09.492c-.994-.181-1.983-.371-2.966-.568l.099-.49c-.981-.198-1.956-.403-2.925-.617l-.108.489c-.972-.215-1.94-.437-2.902-.668l.117-.486c-.976-.234-1.946-.477-2.91-.728l-.126.484c-.976-.253-1.946-.515-2.91-.786l.135-.481c-.961-.27-1.917-.548-2.866-.835l-.145.479c-.953-.287-1.9-.583-2.841-.886l.153-.476c-.957-.309-1.909-.627-2.855-.953l-.162.473c-.951-.327-1.896-.663-2.834-1.008l.172-.469c-.936-.344-1.865-.695-2.788-1.055l-.182.466c-.931-.363-1.855-.734-2.773-1.113l.19-.462c-.928-.383-1.851-.775-2.767-1.175l-.2.458c-.919-.402-1.832-.811-2.738-1.23l.209-.454c-.903-.416-1.8-.841-2.691-1.274l-.218.45c-.903-.439-1.799-.886-2.688-1.341l.228-.445c-.892-.456-1.777-.921-2.655-1.394l-.237.441c-.881-.475-1.756-.957-2.624-1.447l.246-.436c-.866-.489-1.725-.986-2.577-1.491l-.255.43c-.865-.513-1.724-1.033-2.576-1.562l.264-.425c-.848-.527-1.69-1.062-2.525-1.605l-.273.419c-.837-.544-1.668-1.097-2.492-1.657l.281-.413c-.825-.562-1.643-1.131-2.455-1.708l-.29.408c-.817-.582-1.628-1.171-2.431-1.767l.298-.402c-.8-.594-1.594-1.196-2.38-1.806l-.306.395c-.79-.612-1.572-1.232-2.347-1.859l.315-.388c-.778-.629-1.547-1.266-2.31-1.909l-.322.382c-.766-.646-1.523-1.299-2.274-1.96l.33-.375c-.747-.658-1.488-1.323-2.221-1.996l-.338.369c-.738-.677-1.468-1.361-2.191-2.052l.346-.361c-.722-.69-1.436-1.386-2.1422-2.09l-.3527.355c-.7089-.706-1.4102-1.419-2.1039-2.138l.3599-.347c-.6917-.717-1.3759-1.442-2.0524-2.172l-.3669.339c-.6801-.734-1.3526-1.475-2.0173-2.223l.3736-.332c-.6625-.745-1.3174-1.497-1.9646-2.255l-.3803.325c-.6493-.761-1.291-1.528-1.9249-2.301l.3866-.317c-.632-.771-1.2563-1.548-1.8729-2.331l-.3928.309c-.6187-.786-1.2296-1.578-1.8327-2.376l.3989-.301c-.6011-.796-1.1944-1.597-1.7799-2.404l-.4047.293c-.5872-.809-1.1666-1.625-1.738-2.446l.4103-.285c-.5692-.818-1.1305-1.642-1.6841-2.471l-.4158.278c-.5553-.832-1.1027-1.669-1.6422-2.512l.4211-.269c-.5378-.84-1.0677-1.686-1.5897-2.537l-.4262.262c-.5224-.852-1.0369-1.708-1.5435-2.57l.431-.254c-.5049-.859-1.0019-1.723-1.4909-2.592l-.4358.245c-.4906-.872-.9732-1.749-1.4478-2.63l.4402-.237c-.4723-.878-.9366-1.76-1.393-2.647l-.4446.229c-.457-.889-.906-1.782-1.347-2.679l.4487-.221c-.4397-.894-.8714-1.794-1.2951-2.697l-.4527.212c-.4249-.906-.8418-1.817-1.2506-2.732l.4565-.204c-.4058-.909-.8037-1.821-1.1936-2.738l-.4602.196c-.391-.92-.7741-1.844-1.1491-2.772l.4635-.187c-.3739-.925-.7398-1.854-1.0977-2.787l-.4668.179c-.3578-.933-.7076-1.869-1.0493-2.81l.4699-.171c-.34-.935-.672-1.875-.996-2.818l-.4729.163c-.3249-.946-.6419-1.895-.9507-2.848l.4756-.154c-.3077-.95-.6074-1.903-.8991-2.859l-.4782.146c-.291-.954-.574-1.912-.8489-2.872l.4807-.138c-.2742-.958-.5403-1.919-.7984-2.883l-.483.13c-.2589-.967-.5096-1.937-.7523-2.91l.4851-.121c-.2411-.966-.4742-1.936-.6992-2.908l-.4871.113c-.2252-.972-.4423-1.948-.6513-2.925l.4889-.105c-.2085-.975-.4089-1.953-.6013-2.933l-.4907.096c-.1928-.982-.3776-1.968-.5543-2.955l.4922-.088c-.1752-.979-.3423-1.96-.5015-2.943l-.4935.08c-.1597-.986-.3112-1.975-.4548-2.965l.4949-.072c-.1432-.988-.2783-1.978-.4054-2.97l-.4959.064c-.127-.991-.2459-1.984-.3568-2.979l.4969-.055c-.1102-.989-.2125-1.98-.3067-2.973l-.4978.048c-.0945-.996-.181-1.993-.2595-2.991l.4985-.04c-.0783-.995-.1485-1.993-.2107-2.992l-.4991.031c-.0619-.995-.1159-1.991-.1619-2.989l.4995-.023c-.0459-.995-.0838-1.991-.1137-2.989l-.4997.015c-.03-1-.052-2.001-.066-3.004l.5-.007c-.0139-.997-.0199-1.995-.0178-2.995l-.5-.001c.0021-.997.0121-1.995.03-2.994l.4999.009c.0179-.997.0438-1.994.0776-2.992l-.4997-.017c.0339-1.001.0757-2.003.1256-3.005l.4994.025c.0495-.994.1069-1.989.1722-2.984l-.499-.033c.0654-.995.1386-1.992.2198-2.988l.4983.04c.081-.994.1698-1.988.2666-2.983l-.4976-.049c.097-.997.2019-1.994.3149-2.992l.4968.057c.1118-.988.2314-1.975.3588-2.963l-.4959-.064c.1278-.99.2635-1.98.407-2.971l.4949.072c.1431-.988.2942-1.976.4532-2.964l-.4937-.079c.1589-.987.3256-1.974.5002-2.961l.4924.087c.1732-.979.3542-1.957.5431-2.936l-.491-.095c.1893-.981.3865-1.961.5915-2.942l.4894.103c.2045-.978.4168-1.955.637-2.932l-.4877-.11c.2193-.974.4465-1.947.6815-2.919l.486.118c.2336-.967.475-1.933.7242-2.899l-.4842-.125c.2498-.968.5074-1.935.7728-2.902l.4821.133c.2647-.964.5372-1.927.8175-2.89l-.4801-.14c.2785-.956.5646-1.911.8585-2.865l.4778.147c.2929-.951.5934-1.901.9016-2.85l-.4756-.154c.3091-.952.6258-1.902.9502-2.851l.4732.162c.3232-.946.6541-1.89.9927-2.833l-.4706-.169c.3363-.937.6802-1.872 1.0317-2.806l.468.176c.3506-.931.7088-1.862 1.0747-2.79l-.4653-.184c.3668-.931.7412-1.861 1.1233-2.789l.4623.19c.3799-.922.7673-1.844 1.1623-2.763l-.4594-.198c.3927-.914.793-1.827 1.2007-2.738l.4564.204c.4067-.908.821-1.816 1.2427-2.721l-.4532-.211c.4229-.908.8532-1.814 1.2912-2.718l.45.218c.4345-.897.8766-1.792 1.3261-2.685l-.4466-.225c.4473-.889.9019-1.776 1.364-2.661l.4433.231c.4609-.882.9292-1.763 1.405-2.642l-.4397-.238c.4769-.881.9613-1.76 1.4532-2.636l.436.244c.4874-.868.9821-1.735 1.4841-2.599l-.4324-.251c.4997-.86 1.0066-1.718 1.5208-2.574l.4286.257c.513-.853 1.0332-1.705 1.5607-2.554l-.4247-.263c.5288-.852 1.0649-1.7 1.6084-2.547l.4207.271c.2707-.422.5432-.843.8176-1.263.2848-.429.5703-.855.8562-1.28l-.4147-.279c.5737-.852 1.1497-1.698 1.7279-2.536l.4116.284c.5771-.837 1.1564-1.667 1.7379-2.489l-.4083-.289c.5826-.824 1.1674-1.642 1.7543-2.452l.4049.293c.5858-.809 1.1737-1.611 1.7637-2.406l-.4015-.298c.5912-.796 1.1845-1.586 1.7798-2.369l.398.303c.5942-.782 1.1904-1.556 1.7886-2.324l-.3943-.307c.5994-.769 1.2009-1.532 1.8044-2.287l.3907.312c.6244-.782 1.251-1.557 1.8797-2.324l-.3867-.317c.6495-.792 1.3013-1.577 1.9553-2.355l.383.322c.652-.775 1.307-1.543 1.964-2.303l-.379-.327c.659-.762 1.319-1.516 1.982-2.263l.374.332c.661-.744 1.324-1.482 1.989-2.211l-.369-.337c.666-.732 1.335-1.455 2.006-2.171l.365.341c.669-.714 1.341-1.421 2.014-2.12l-.36-.347c.678-.705 1.359-1.402 2.041-2.092l.355.352c.72-.728 1.442-1.447 2.167-2.157l-.351-.357c.726-.713 1.454-1.4165 2.185-2.1121l.344.362c.729-.6939 1.459-1.3794 2.192-2.0566l-.34-.3671c.734-.6789 1.471-1.3495 2.209-2.0117l.334.3721c.736-.6606 1.475-1.3129 2.215-1.957l-.328-.3772c.742-.6457 1.486-1.2832 2.232-1.9125l.322.3822c.748-.6303 1.497-1.2523 2.247-1.8661l-.316-.3871c.792-.6472 1.585-1.2853 2.381-1.9143l.31.3922c.793-.6273 1.589-1.2456 2.386-1.8549l-.304-.3973c.8-.611 1.601-1.213 2.405-1.806l.297.4022c.801-.5914 1.603-1.1738 2.408-1.7474l-.29-.4072c.807-.5752 1.615-1.1415 2.425-1.699l.284.4119c.808-.5559 1.618-1.1029 2.429-1.6412l-.276-.4167c.83-.5511 1.663-1.0931 2.497-1.6259l.269.4213c.854-.5453 1.709-1.081 2.566-1.6072l-.262-.4261c.859-.5277 1.721-1.046 2.583-1.5547l.254.4307c.86-.5073 1.722-1.0051 2.585-1.4935l-.246-.4351c.866-.4899 1.733-.9703 2.602-1.4414l.239.4395c.866-.4697 1.733-.93 2.603-1.3811l-.231-.4437c.875-.4543 1.752-.8992 2.63-1.3347l.222.4479c.906-.4494 1.813-.8887 2.721-1.3182l-.214-.452c.911-.4309 1.824-.8518 2.738-1.2629l.205.456c.911-.4098 1.823-.8098 2.736-1.2l-.196-.4598c.916-.3915 1.834-.7732 2.752-1.1452l.188.4634c.915-.3708 1.832-.732 2.75-1.0835l-.179-.4669c.921-.3527 1.842-.6958 2.765-1.0293l.17.4703c.947-.3423 1.895-.6745 2.844-.9967l-.16-.4735c.952-.3231 1.905-.6362 2.859-.9393l.151.4765c.951-.3021 1.903-.5942 2.855-.8764l-.142-.4794c.955-.2832 1.911-.5564 2.868-.8197l.133.4821c.954-.2625 1.908-.5151 2.863-.758l-.123-.4845c.959-.2441 1.92-.4784 2.88-.7029l.114.4869c.977-.2282 1.954-.4463 2.931-.6543l-.104-.489c.98-.2087 1.961-.4073 2.943-.596l.094.491c.978-.188 1.956-.366 2.935-.5342l-.085-.4928c.982-.1687 1.964-.3275 2.946-.4765l.075.4943c.979-.1484 1.958-.2871 2.937-.4161l-.065-.4957c.986-.1299 1.972-.2499 2.958-.3602l.056.4969c.993-.111 1.985-.2121 2.978-.3033l-.046-.4979c.995-.0916 1.991-.1732 2.986-.2451l.036.4987c.992-.0716 1.984-.1335 2.975-.1856l-.026-.4993c.995-.0524 1.989-.095 2.983-.128l.016.4997c.991-.0329 1.981-.0561 2.971-.0699l-.007-.4999c.997-.0139 1.993-.0181 2.989-.0128l-.002.5c.995.0054 1.991.0203 2.985.0448l.012-.4999c.998.0245 1.995.0586 2.991.1021l-.022.4996c.993.0433 1.985.0962 2.976.1583l.032-.499c.994.0624 1.987.1341 2.979.2151l-.04.4984c.989.0808 1.977.1708 2.964.27l.05-.4975c.992.0998 1.983.2088 2.973.327l-.059.4965c.987.1179 1.973.2449 2.958.381l.068-.4953c.988.1365 1.974.2822 2.959.4368l-.078.4939c.982.1542 1.962.3173 2.941.4894l.086-.4925c.982.1726 1.962.3541 2.941.5445l-.096.4908c.975.1897 1.949.3883 2.921.5956l.104-.489c.974.2077 1.947.4242 2.917.6494l-.113.4871c.968.2245 1.934.4577 2.897.6994l.122-.485c.967.2425 1.931.4935 2.894.7531l-.13.4827c.96.2588 1.917.526 2.873.8017l.138-.4804c.959.2764 1.915.5613 2.869.8545l-.147.478c.95.2918 1.897.5919 2.841.9002l.156-.4753c.946.3087 1.89.6257 2.831.9508l-.163.4726c.939.3241 1.875.6564 2.809.9967l.171-.4698c.936.3412 1.87.6905 2.801 1.0477l-.179.4669c.929.3562 1.855.7204 2.778 1.0924l.187-.4637c.926.373 1.849.754 2.769 1.1427l-.195.4606c.914.3861 1.825.7798 2.733 1.1812l.203-.4573c.91.4023 1.817.8122 2.721 1.2298l-.209.4539c.902.4164 1.8.8403 2.696 1.2717l.217-.4505c.898.4325 1.793.8726 2.685 1.32l-.224.4469c.889.4462 1.776.8998 2.658 1.3608l.232-.4433c.884.4617 1.765.9307 2.643 1.407l-.238.4394c.871.473 1.74.9531 2.605 1.4403l.245-.4357c.867.4885 1.731.984 2.591 1.4866l-.252.4317c.858.5013 1.712 1.0095 2.563 1.5246l.259-.4277c.853.5165 1.702 1.0399 2.548 1.5702l-.266.4236c.843.5289 1.683 1.0646 2.519 1.6071l.272-.4194c.836.5426 1.668 1.092 2.496 1.648l-.278.4151c.823.553 1.643 1.1126 2.459 1.6787l.285-.4108c.818.5676 1.632 1.1417 2.442 1.7223l-.292.4064c.808.5791 1.612 1.1646 2.411 1.7566l.298-.4019c.802.5935 1.599 1.1933 2.392 1.7994l-.304.3973c.792.6046 1.578 1.2155 2.361 1.8326l.309-.3926c.782.6167 1.56 1.2395 2.333 1.8685l-.316.3878c.77.6264 1.536 1.2589 2.297 1.8974l.321-.3831c.763.6401 1.521 1.2862 2.275 1.9383l-.327.3781c.752.6504 1.499 1.3068 2.242 1.9689l.333-.3731c.744.6638 1.484 1.3331 2.219 2.0091l-.339.368c.733.674 1.462 1.354 2.185 2.039l.344-.363c.723.684 1.44 1.374 2.153 2.07l-.349.358c.71.693 1.416 1.392 2.116 2.097l.355-.353c.702.707 1.4 1.419 2.092 2.136l-.36.347c.69.716 1.376 1.437 2.056 2.163l.365-.342c.682.728 1.358 1.462 2.029 2.201l-.37.336c.67.737 1.334 1.479 1.993 2.226l.375-.331c.658.747 1.31 1.498 1.958 2.255l-.38.325c.645.754 1.285 1.514 1.92 2.279l.385-.319c.636.767 1.266 1.538 1.891 2.315l-.389.313c.623.775 1.241 1.555 1.853 2.339l.394-.307c.614.786 1.222 1.578 1.824 2.374l-.399.301c.6.794 1.195 1.592 1.783 2.395l.403-.295c.589.802 1.171 1.61 1.747 2.422l-.407.289c.575.81 1.144 1.624 1.707 2.444l.412-.284c.564.821 1.122 1.647 1.674 2.477l-.416.277c.551.828 1.096 1.661 1.634 2.497l.421-.27c.539.839 1.073 1.682 1.6 2.53l-.424.264c.525.844 1.044 1.693 1.556 2.546l.429-.258c.513.853 1.019 1.71 1.519 2.571l-.433.251c.499.859.991 1.722 1.476 2.59l.437-.245c.486.87.967 1.743 1.44 2.621l-.44.237c.473.875.938 1.754 1.398 2.637l.443-.23c.46.885.914 1.774 1.361 2.667l-.447.224c.444.889.882 1.782 1.313 2.678l.451-.217c.431.897.855 1.797 1.273 2.701l-.454.209c.416.902.825 1.807 1.228 2.715l.457-.202c.403.911.8 1.825 1.189 2.744l-.46.195c.388.915.769 1.835 1.143 2.757l.464-.188c.375.926.743 1.854 1.103 2.786l-.466.18c.358.927.71 1.856 1.054 2.789l.469-.173c.344.932.68 1.868 1.01 2.807l-.472.166c.328.936.649 1.876.963 2.819l.474-.158c.315.945.622 1.894.921 2.845l-.476.15c.298.949.59 1.901.873 2.856l.48-.143c.284.958.561 1.918.83 2.882l-.482.134c.268.956.527 1.915.779 2.876l.483-.127c.252.961.496 1.924.732 2.89l-.486.119c.236.963.464 1.929.684 2.898l.487-.111c.221.971.434 1.945.639 2.922l-.489.102c.204.974.4 1.95.589 2.929l.491-.094c.189.981.37 1.965.543 2.952l-.492.086c.171.977.335 1.956.49 2.938l.494-.078c.155.979.302 1.96.441 2.944l-.495.07c.139.98.27 1.964.393 2.949l.496-.062c.123.988.238 1.978.344 2.971l-.497.053c.107.99.205 1.981.295 2.975l.498-.045c.09.996.172 1.995.246 2.995l-.499.037c.073.989.138 1.981.195 2.974l.499-.028c.056.987.104 1.976.144 2.967l-.5.02c.04.989.071 1.979.094 2.971l.5-.012c.023.994.038 1.991.045 2.989l-.5.003c.007.995.005 1.992-.005 2.99l.5.006c-.01 1.001-.029 2.004-.056 3.008l-.5-.014c-.027.995-.062 1.991-.106 2.989l.499.022c-.043.985-.094 1.971-.154 2.959l-.499-.03c-.059.985-.127 1.971-.203 2.959l.498.038c-.076.991-.161 1.982-.254 2.975l-.498-.046c-.093.99-.194 1.981-.304 2.974l.497.055c-.11.995-.229 1.991-.356 2.989l-.496-.063c-.127.995-.262 1.99-.406 2.987l.495.072c-.141.972-.289 1.945-.446 2.919l-.494-.079c-.156.971-.32 1.942-.493 2.915l.492.087c-.173.976-.355 1.952-.545 2.929l-.491-.095c-.189.974-.387 1.949-.593 2.925l.489.103c-.207.979-.422 1.958-.645 2.939l-.488-.112c-.223.978-.454 1.956-.695 2.935l.486.119c-.237.966-.482 1.932-.735 2.899l-.484-.127c-.248.946-.504 1.893-.768 2.841l.481.134c-.265.95-.538 1.9-.819 2.851l-.479-.142c-.281.948-.569 1.897-.866 2.847l.477.149c-.297.951-.603 1.904-.917 2.856l-.475-.156c-.313.95-.634 1.9-.964 2.851l.472.164c-.33.953-.669 1.907-1.016 2.861l-.47-.171c-.336.923-.681 1.846-1.033 2.77l.468.178c-.349.915-.706 1.831-1.07 2.746l-.465-.185c-.363.914-.734 1.827-1.113 2.741l.462.191c-.38.916-.768 1.832-1.164 2.748l-.459-.198c-.395.913-.798 1.827-1.209 2.741l.457.205c-.412.916-.832 1.833-1.26 2.749l-.453-.212c-.426.914-.861 1.828-1.304 2.742l.45.218c-.43.887-.867 1.773-1.311 2.66l-.447-.224c-.437.87-.881 1.741-1.333 2.611l.444.231c-.452.872-.912 1.744-1.38 2.617l-.441-.237c-.466.871-.94 1.741-1.421 2.611l.437.242c-.483.872-.973 1.743-1.47 2.615l-.434-.248c-.497.87-1.001 1.739-1.512 2.608l.43.254c-.512.871-1.033 1.741-1.561 2.612l-.427-.26c-.519.855-1.045 1.71-1.578 2.564l.424.265c-.514.824-1.036 1.647-1.564 2.47l-.421-.27c-.527.822-1.061 1.643-1.602 2.463l.418.276c-.543.822-1.092 1.644-1.648 2.466l-.414-.281c-.555.82-1.117 1.64-1.686 2.459l.411.285c-.57.821-1.148 1.642-1.732 2.462l-.407-.291c-.583.819-1.174 1.637-1.771 2.454z" stroke="#fee9d1" stroke-dasharray="3 3"/><g fill="#fdab76"><path d="m262.937 84.1281c.336-.1226.707-.1066 1.031.0443.325.1509.576.4245.699.7605.497 1.3594 1.061 2.7188 1.676 4.0386.082.1614.13.3375.141.5179.012.1803-.012.3613-.071.532-.06.1707-.153.3278-.274.462-.121.1341-.268.2425-.432.3188-.163.0763-.341.1189-.522.1253-.18.0065-.36-.0235-.529-.088s-.323-.1622-.454-.2874c-.13-.1252-.234-.2753-.305-.4415-.425-1.5083-3.126-5.108-.96-5.9825zm6.84 11.0605c.606 1.494 4.022 4.1462 2.278 5.4624-1.931 1.35-3.486-2.8276-4.547-3.9985-.968-1.4544 1.334-2.9517 2.269-1.4639zm7.24 8.8724c.917 1.323 4.842 3.128 3.441 4.816-1.584 1.743-4.029-1.985-5.326-2.885-1.266-1.202.638-3.175 1.885-1.931zm9.044 7.03c1.24.757 2.535 1.469 3.826 2.117.159.079.3.188.416.322.117.134.206.289.262.458.056.168.078.345.066.522s-.06.35-.139.509c-1.109 2.059-4.392-1.037-5.838-1.624-1.502-.889-.083-3.237 1.407-2.304zm10.384 4.842c1.375.461 2.788.871 4.2 1.216.348.086.647.305.833.611s.243.673.159 1.021c-.623 2.25-4.519-.041-6.051-.29-1.667-.535-.792-3.143.859-2.558zm11.198 2.419c1.445.147 2.912.233 4.365.257.358.006.698.154.947.411.249.258.385.603.379.961-.109 2.332-4.409.961-5.964 1.057-1.75-.153-1.46-2.887.273-2.686zm46.56-18.5371c.137.1128.25.2511.333.4081s.135.328.152.505c.017.176-.001.355-.053.524-.052.17-.137.327-.25.464-1.193 1.033-3.227 5.01-4.988 3.441-1.573-1.538 2.143-3.745 2.905-5.1583.227-.2764.554-.4516.91-.4872.356-.0357.712.0712.989.2971zm-35.113 18.4171c1.439-.178 2.888-.42 4.308-.721.173-.037.352-.04.527-.007.174.032.34.099.489.195.149.097.277.222.377.368.1.147.171.311.207.485.412 2.297-4.083 1.921-5.577 2.359-1.741.241-2.063-2.5-.331-2.679zm26.868-10.033c1.364 1.902-2.852 3.495-4.012 4.541-.301.186-.663.246-1.008.168-.346-.079-.646-.289-.837-.587s-.258-.659-.185-1.006c.072-.346.278-.651.573-.847 1.223-.792 2.425-1.632 3.575-2.516.284-.218.643-.314.998-.268.355.047.677.232.896.515zm-15.736 7.357c1.362-.495 2.722-1.056 4.04-1.667.325-.151.696-.166 1.032-.042.336.123.609.375.76.699.916 2.149-3.554 2.787-4.912 3.548-1.635.622-2.571-1.97-.92-2.538z"/><path d="m358.09 91.8086c-.826.5038-1.073 1.6177-1.647 2.3766-.186.3055-.244.6725-.16 1.0205.084.3479.303.6482.609.8348 1.622.8935 2.297-1.3103 2.97-2.3592.671-1.1122-.656-2.4747-1.772-1.8727z"/><path d="m362.484 50.9014c-1.454.7557-.317 2.4558-.125 3.6298.091.3461.315.6422.623.8231.309.1809.677.2319 1.023.1418 1.773-.5482.651-2.5635.365-3.7772-.058-.1865-.155-.3584-.285-.5038-.131-.1455-.291-.261-.47-.3387-.179-.0776-.373-.1156-.568-.1113s-.387.0508-.563.1363z"/><path d="m291.564 17.8505c1.595-.713 2.693 1.8109 1.064 2.4811-1.548.3327-4.662 3.2448-5.703 1.3039-1.005-2.1183 3.322-2.9358 4.639-3.785zm-8.443 6.1505c.103.1437.178.3065.219.479.04.1725.047.3513.018.5263-.028.175-.091.3426-.184.4934-.093.1507-.215.2816-.359.3851-1.458.6749-3.849 4.1764-5.286 2.5112-1.44-1.8489 2.6-3.5838 3.708-4.7008.29-.2088.652-.2938 1.005-.2365.353.0574.669.2523.879.5423zm15.381-8.5841c1.562-.1585 5.448-2.2182 5.987.0618.436 2.1262-3.841 1.8457-5.27 2.5349-1.685.4975-2.405-2.1658-.717-2.5967zm-24.167 16.1193c1.638 1.4814-1.901 3.7946-2.598 5.2411-.104.1464-.237.2705-.39.365s-.323.1575-.5.1854c-.178.0278-.359.02-.534-.0232-.174-.0431-.338-.1206-.482-.228s-.265-.2425-.357-.3973c-.091-.1549-.15-.3264-.174-.5045s-.013-.3592.034-.5326c.047-.1735.128-.3359.239-.4777 1.136-1.0853 2.931-5.1032 4.762-3.6282zm35.88-17.9841c1.537.1774 5.835-.9507 5.826 1.3768-.042 2.1706-4.155.9506-5.704 1.3198-1.743.1093-1.863-2.6491-.122-2.6966zm11.837.751c1.484.5244 5.871.3168 5.386 2.6126-.511 2.1104-4.258.0301-5.851.0459-1.731-.2772-1.25-2.9897.465-2.6585zm11.393 3.3113c1.391.5767 2.772 1.2184 4.107 1.9012 1.566.7795.307 3.2258-1.238 2.3988-1.267-.6544-2.581-1.2675-3.902-1.811-1.626-.6416-.578-3.183 1.033-2.489zm10.4 5.718c1.118 1.109 5.177 2.7948 3.756 4.6628-1.426 1.6778-3.844-1.8015-5.311-2.4558-1.441-.9839.126-3.2337 1.555-2.207zm8.891 7.8679c.846 1.323 4.436 3.8643 2.638 5.3742-1.743 1.3277-3.364-2.6063-4.639-3.5632-1.19-1.277.835-3.1292 2.001-1.811zm6.941 9.6187c.745 1.3119 1.437 2.6602 2.069 4.0259.634 2.169-2.194 2.8646-2.939.1062-.461-.9506-.95-1.8854-1.476-2.8012-.889-1.5067 1.502-2.8693 2.346-1.3309z"/><path d="m266.163 40.8222c-.857.5276-1.098 1.6921-1.616 2.5208-.079.1586-.126.3312-.138.5081-.013.1768.01.3543.066.5224.057.168.146.3233.262.457.116.1336.258.243.417.3218 1.655.7462 2.124-1.4338 2.785-2.4684.662-1.1075-.662-2.4621-1.776-1.8617z"/><path d="m321.345 70.3057c3.182-5.7291-2.831-12.8825-9.03-10.6945-1.913.613-3.504 1.9594-4.424 3.7439-.921 1.7845-1.097 3.8614-.488 5.775 1.803 6.3153 11.102 7.0885 13.942 1.1756z"/><path clip-rule="evenodd" d="m271.464 61.793c-.481.4477 2.993 2.5041 5.297 3.8674 1.063.6288 1.876 1.1104 1.937 1.2184.001 3.879.634 7.732 1.875 11.4074-.032.1389-.669.8796-1.492 1.8354-1.74 2.0209-4.308 5.0039-3.726 5.2943l5.189 8.3496c-.013.6579 3.846-.3332 6.436-.9987 1.215-.312 2.151-.5524 2.278-.5175 2.747 2.742 5.923 5.0179 9.402 6.7383.075.1203.148 1.0914.242 2.3464.199 2.662.494 6.597 1.114 6.391l9.573 2.238c.457.475 2.49-2.966 3.85-5.268.636-1.076 1.125-1.904 1.237-1.967 3.879-.001 7.732-.634 11.408-1.876.138.032.876.668 1.83 1.488 2.021 1.741 5.01 4.313 5.299 3.73l8.352-5.188c.656.013-.335-3.8429-1-6.4334-.312-1.2159-.553-2.1531-.518-2.2801 2.742-2.7467 5.018-5.9223 6.738-9.4017.12-.075 1.088-.1474 2.34-.241 2.661-.199 6.604-.494 6.399-1.1136l2.236-9.5728c.475-.457-2.969-2.4924-5.272-3.8528-1.073-.6345-1.899-1.1222-1.962-1.2346-.001-3.8792-.635-7.7322-1.876-11.4074.032-.1387.667-.8768 1.488-1.8301 1.74-2.0211 4.313-5.0089 3.731-5.2996l-5.191-8.3433c.013-.6589-3.857.3362-6.445 1.0016-1.208.3107-2.137.5495-2.261.5147-2.746-2.739-5.921-5.0123-9.398-6.7304-.076-.1208-.149-1.0924-.243-2.3471-.199-2.6613-.493-6.5969-1.113-6.3923l-9.573-2.2371c-.457-.474-2.49 2.9653-3.85 5.2673-.636 1.0762-1.125 1.9038-1.238 1.9669-3.879.0016-7.732.6352-11.407 1.8759-.139-.032-.877-.6672-1.83-1.4876-2.021-1.7397-5.009-4.3122-5.3-3.7297l-8.36 5.1824c-.657-.0118.334 3.8448.999 6.435.313 1.2155.553 2.152.518 2.2791-2.742 2.7469-5.018 5.9224-6.738 9.4016-.118.0737-1.079.1458-2.324.2392-2.662.1997-6.624.4968-6.415 1.1154zm40.149-4.3825c12.526-3.6361 18.312 14.5762 6.001 18.8287-12.485 3.7312-18.266-14.7109-6.001-18.8287zm-9.623-11.1625c.708-.4398 1.437-.8433 2.185-1.2089 17.701-9.1893 39.339 8.0026 34.294 27.37-4.159 20.6047-33.717 25.5384-44.299 7.296-.435-.7003-.833-1.4201-1.195-2.1595-.79-.7463-4.252-12.7209-1.369-10.5186-.129 17.5849 20.569 29.2268 35.416 19.5146 15.416-8.9913 13.98-33.2955-2.171-40.5028-8.238-4.1241-19.272-2.5999-26.142 4.2129-.065.0627-.145.1091-.231.1356-.087.0265-.179.0322-.268.0168-.09-.0154-.174-.0515-.247-.1055s-.132-.1244-.173-.2054c-.26-.8557 2.08-2.4169 3.444-3.3266.322-.2154.591-.3943.756-.5186z" fill-rule="evenodd"/><path d="m205.808 72.4764c-.99.6337-.09 2.0597-.033 2.9802.051.2149.184.4009.372.5173s.414.1537.629.1038c1.285-.4421.212-2.0518.22-2.9945-.022-.1274-.074-.248-.15-.3521-.077-.1041-.177-.1889-.292-.2477-.116-.0589-.243-.0901-.372-.0913-.13-.0013-.258.0276-.374.0843z"/><path d="m207.543 78.6368c1.327-.5181 1.743 2.8519 2.446 3.709.317.5577.74 1.3832-.029 1.7824-.773.366-1.224-.4341-1.468-1.0488-.292-1.0267-2.38-3.8469-.949-4.4426zm4.943 8.0058c.795 1.1675 1.66 2.285 2.592 3.3462.146.166.22.3831.205.6036-.014.2204-.115.4262-.281.572-1.21 1.0568-3.124-2.7806-3.894-3.5822-.62-.8825.776-1.8443 1.378-.9396zm5.579 6.3454c1.057.9368 2.171 1.8072 3.336 2.6063.899.5973-.062 2.0011-.95 1.3752-.793-.7731-4.63-2.6934-3.57-3.9102.073-.0828.161-.1503.26-.1988.099-.0484.207-.0767.317-.0834.11-.0066.22.0086.324.0448s.2.0927.283.1661zm6.971 4.7801c1.254.6494 2.546 1.2209 3.87 1.7111 1.019.3596.433 1.9518-.578 1.5638-.951-.553-5.148-1.4846-4.416-2.9169.102-.1953.277-.3426.487-.4097.21-.067.437-.0485.634.0517zm7.922 2.9359c1.374.324 2.767.564 4.171.719 1.074.102.892 1.792-.184 1.656-1.047-.293-5.386-.209-4.99-1.756.051-.214.185-.4.372-.516.188-.117.414-.154.629-.103zm8.397.922c1.41-.019 2.817-.125 4.214-.317.219-.03.441.028.618.161.176.134.293.331.323.551.219 1.584-4.041 1.075-5.133 1.275-1.087.027-1.1-1.676-.024-1.67zm8.362-1.16c1.364-.365 2.703-.8143 4.012-1.3449.101-.0413.21-.0622.319-.0614.11.0007.218.0231.319.0658s.192.1048.269.1829c.076.0781.137.1706.178.2722.599 1.4894-3.665 2.0374-4.664 2.4974-1.046.294-1.479-1.354-.435-1.612zm12.559-5.2773c.873 1.3055-2.574 2.5603-3.412 3.2686-.503.3659-1.268.6543-1.642-.0349s.243-1.1598.805-1.4069c1.085-.347 3.492-3.0135 4.248-1.8268z"/><path d="m225.478 34.7294c1.066-.2994 4.595-2.6126 5.103-1.0964.069.2097.052.4382-.047.6355s-.271.3476-.48.4182c-1.318.4391-2.608.9571-3.863 1.551-.971.4754-1.697-1.0599-.713-1.5083zm-2.678 2.3623c.059.0927.098.196.117.304.018.1079.015.2185-.009.3254-.024.1068-.069.2078-.133.2972-.063.0894-.143.1654-.236.2237-1.176.7425-2.306 1.5546-3.384 2.432-.173.1383-.392.203-.612.1798-.22-.0231-.421-.1322-.561-.3034-1.007-1.239 2.852-2.9818 3.668-3.7153.187-.1177.413-.1567.628-.1087.215.0481.403.1794.522.3653zm10.948-5.108c1.109-.0333 5.088-1.4259 5.219.1695.017.2204-.055.4383-.198.606-.144.1678-.348.2718-.569.2892-1.383.1069-2.759.2968-4.119.5688-1.062.2297-1.391-1.4434-.333-1.6335zm-17.681 10.3238c.159.1533.251.3635.255.5844.005.221-.079.4347-.232.5943-.961 1.0009-1.86 2.0591-2.693 3.1688-.066.0875-.148.1611-.242.2168-.095.0557-.199.0923-.307.1076-.108.0154-.219.0093-.325-.018-.106-.0272-.205-.0751-.293-.1409-.087-.0657-.161-.148-.217-.2423-.055-.0942-.092-.1985-.107-.3068-.016-.1084-.01-.2187.018-.3247.027-.106.075-.2056.141-.2931.793-.7557 2.84-4.4489 4.002-3.3461zm26.367-10.9813c1.079.2329 5.28-.1584 5.024 1.4259-.037.218-.159.4124-.339.5407s-.403.18-.621.1438c-1.37-.23-2.752-.3766-4.139-.4389-1.083-.0459-1.001-1.7475.075-1.6715zm8.592 1.437c.995.4864 5.166 1.1091 4.541 2.5794-.088.203-.253.3629-.458.4446-.206.0817-.436.0785-.639-.0089-1.276-.5498-2.584-1.0228-3.916-1.4164-1.041-.2979-.56-1.9266.472-1.6098zm8.002 3.454c.851.7097 4.754 2.3163 3.79 3.5949-.134.1759-.332.2914-.552.3211-.219.0297-.441-.0288-.617-.1627-1.106-.8407-2.262-1.6131-3.462-2.3132-.938-.5386-.09-2.0058.841-1.4481z"/><path d="m209.99 49.0061c-.678.5197-.923 1.5036-1.362 2.2181-.496.9618 1.023 1.7175 1.492.7431.298-.5989.621-1.2009.96-1.7919.425-.6908-.4-1.5432-1.09-1.1693z"/><path d="m245.411 66.1164c-.708-2.3908-3.467-3.8167-5.828-3.0103-2.416.7193-3.842 3.5189-2.986 5.9002 2.01 5.6831 10.544 2.9327 8.811-2.8851z"/><path clip-rule="evenodd" d="m213.942 64.374c-.295.2821 1.882 1.5727 3.324 2.4273.664.3932 1.171.6941 1.211.762.001 2.4325.398 4.8485 1.175 7.1534-.775.9842-1.4 1.7178-1.886 2.2882-.914 1.0724-1.336 1.5678-1.339 2.0664-.004.428.301.8584.868 1.6584.549.774 1.343 1.8941 2.34 3.6929 0 .4112 2.431-.2139 4.05-.6302.752-.1933 1.329-.3416 1.406-.3205 1.723 1.7185 3.713 3.1451 5.894 4.224.042.0732.085.6459.142 1.3956.127 1.6664.32 4.2072.707 4.0815 2.027.37 3.345.7614 4.255 1.0317.948.2815 1.453.4316 1.855.2893.46-.1625.784-.7067 1.479-1.8726.388-.6519.892-1.4981 1.601-2.5807 2.432-.0011 4.848-.3981 7.153-1.1756.985.7751 1.718 1.4002 2.289 1.8861 1.073.9139 1.569 1.336 2.067 1.3398.429.0032.859-.3018 1.659-.8686.774-.5484 1.894-1.3418 3.693-2.3383.409 0-.213-2.4208-.629-4.0406-.194-.7571-.344-1.3393-.322-1.4175 1.719-1.722 3.146-3.7127 4.224-5.8939.073-.0418.646-.0852 1.397-.1421 1.666-.1265 4.207-.3192 4.08-.7071.37-2.0268.762-3.3451 1.032-4.2553.282-.9474.432-1.4526.29-1.8546-.163-.4593-.707-.7836-1.874-1.4786-.651-.3884-1.498-.8926-2.58-1.6008 0-2.4326-.398-4.8488-1.176-7.1534.775-.9846 1.401-1.7185 1.887-2.289.913-1.0729 1.335-1.5684 1.339-2.0671.003-.428-.302-.8584-.868-1.6581-.549-.7739-1.342-1.8936-2.339-3.6917 0-.411-2.428.2132-4.048.6296-.753.1935-1.331.3421-1.41.321-1.721-1.7188-3.712-3.1454-5.892-4.2239-.043-.0736-.087-.6515-.144-1.4065-.127-1.6669-.32-4.1971-.707-4.0707-2.026-.3701-3.344-.7617-4.254-1.0321-.947-.2815-1.453-.4316-1.855-.2895-.459.1624-.784.7068-1.479 1.8736-.389.6518-.893 1.498-1.601 2.5803-2.433.0003-4.849.3974-7.154 1.1756-.984-.7752-1.718-1.4003-2.288-1.8864-1.073-.9135-1.568-1.3356-2.066-1.3394-.428-.0033-.859.3016-1.659.8684-.774.5484-1.894 1.3419-3.693 2.3384-.409 0 .214 2.427.63 4.0469.193.7537.342 1.3328.321 1.4113-1.72 1.7207-3.148 3.711-4.227 5.8922-.074.0446-.665.0894-1.435.1477-1.667.1264-4.171.3161-4.044.7032zm25.131-2.8523c7.978-2.329 11.693 9.2749 3.831 12.0159-7.95 2.3749-11.673-9.3763-3.831-12.0159zm-5.302-7.8086c.186-.1033.342-.1896.454-.2554 11.282-5.9904 25.506 5.2237 22.178 17.6768-2.778 13.3927-21.701 16.5028-28.628 4.7151-1.498-2.4103-2.315-5.1812-2.364-8.0185-.038-1.0837 1.678-1.1043 1.667-.0269.451 16.395 23.803 18.8873 27.702 2.958 2.307-8.779-5.352-17.8907-14.362-17.2173-2.38.1149-4.691.8388-6.711 2.1024-.395.1306-.84.5383-1.295.9552-.788.7211-1.606 1.4699-2.242.8605-1.038-1.1783 2.176-2.9601 3.601-3.7499z" fill-rule="evenodd"/><path d="m268.43 423.227c-.86.475-1.158 1.6-1.773 2.343-.2.303-.273.673-.202 1.029s.28.67.581.872c1.613.978 2.392-1.237 3.121-2.276.729-1.093-.564-2.529-1.727-1.968z"/><path d="m274.602 381.777c-1.512.708-.428 2.488-.278 3.689.078.356.294.666.6.863.307.198.679.265 1.035.189 1.827-.485.769-2.583.526-3.83-.05-.192-.142-.371-.268-.525-.127-.153-.285-.278-.464-.364-.179-.087-.374-.134-.573-.137-.199-.004-.396.035-.578.115z"/><path d="m203.801 345.202c1.656-.661 2.658 1.954.982 2.568-1.35.515-2.693 1.097-4.026 1.734-1.584.792-2.81-1.729-1.19-2.478 1.385-.666 2.805-1.277 4.234-1.824zm-8.846 5.908c1.239 1.851-2.88 3.245-3.943 4.47-.142.112-.304.194-.478.243s-.355.064-.535.042c-.179-.021-.352-.078-.51-.166-.157-.088-.295-.207-.407-.349-1.389-1.941 2.795-3.54 3.961-4.63.151-.1.32-.17.498-.205s.362-.034.539.002c.178.037.347.108.497.209.15.102.279.233.378.384zm16.002-8.098c1.575-.104 5.676-2.021 6.091.317.051.361-.043.728-.261 1.019-.218.292-.543.486-.904.539-1.442.207-2.888.475-4.303.808-1.73.426-2.351-2.313-.616-2.683zm-25.262 15.401c1.611 1.552-2.096 3.791-2.862 5.228-.113.14-.254.257-.413.343-.158.086-.333.14-.512.158-.18.019-.361.002-.535-.049-.173-.052-.334-.137-.474-.251-1.783-1.584 1.95-4.07 2.852-5.387.125-.131.274-.236.44-.309s.345-.113.526-.117.361.028.53.094c.169.065.323.164.454.29zm37.259-16.811c1.558.244 5.978-.724 5.862 1.642-.013.18-.062.356-.143.517-.082.162-.195.305-.332.423s-.296.207-.468.264c-.172.056-.353.077-.533.063-1.453-.112-2.925-.158-4.376-.158-1.775.036-1.776-2.774-.003-2.751zm12.015 1.255c1.473.58 5.992.597 5.372 2.884-.053.172-.139.333-.254.472s-.256.255-.416.339c-.159.085-.334.137-.514.154-.179.017-.361-.001-.533-.054-1.39-.426-2.816-.792-4.238-1.109-1.745-.35-1.143-3.093.589-2.686zm11.456 3.844c1.391.643 2.771 1.353 4.1 2.109 1.563.858.18 3.295-1.357 2.39-1.268-.719-2.575-1.392-3.898-2.005-1.621-.724-.448-3.267 1.161-2.494zm10.36 6.255c1.094 1.172 5.153 3.058 3.63 4.9-1.529 1.648-3.837-1.993-5.303-2.718-1.434-1.073.255-3.291 1.673-2.182zm8.714 8.377c.807 1.38 4.351 4.119 2.461 5.577-1.816 1.286-3.327-2.791-4.573-3.819-1.156-1.354.98-3.154 2.112-1.763zm6.664 10.075c.485 1.492 3.362 5.031 1.195 5.979-2.028.882-2.646-3.437-3.644-4.722-.832-1.574 1.648-2.862 2.449-1.262z"/><path d="m177 367.522c-.894.502-1.189 1.676-1.743 2.498-.087.158-.142.332-.162.511-.02.18-.004.361.046.535.05.173.134.335.247.476.113.14.252.258.411.344 1.654.829 2.218-1.37 2.937-2.395.713-1.1-.578-2.533-1.736-1.969z"/><path d="m231.931 399.813c3.476-5.704-2.345-13.228-8.747-11.259-1.972.544-3.649 1.848-4.661 3.626s-1.278 3.885-.739 5.858c1.578 6.506 11.01 7.678 14.146 1.775z"/><path clip-rule="evenodd" d="m181.528 389.075c-.507.433 2.924 2.659 5.211 4.144 1.065.691 1.882 1.221 1.939 1.335-.16 3.949.325 7.898 1.436 11.691-.039.14-.715.864-1.588 1.798-1.855 1.986-4.6 4.923-4.018 5.246l4.932 8.714c-.041.67 3.941-.182 6.603-.752 1.241-.266 2.195-.47 2.32-.43 2.682 2.905 5.819 5.353 9.288 7.247.071.126.105 1.114.148 2.392.092 2.717.229 6.742.869 6.558l9.649 2.673c.445.502 2.657-2.915 4.137-5.201.691-1.068 1.223-1.89 1.34-1.949 3.95.161 7.899-.323 11.693-1.434.139.038.863.715 1.799 1.588 1.984 1.855 4.92 4.598 5.243 4.018l8.714-4.933c.67.04-.183-3.942-.753-6.604-.266-1.241-.47-2.195-.43-2.32 2.905-2.682 5.353-5.819 7.248-9.288.126-.071 1.115-.105 2.393-.148 2.716-.092 6.739-.229 6.556-.867l2.673-9.649c.503-.445-2.913-2.656-5.199-4.137-1.069-.692-1.892-1.224-1.952-1.342.164-3.949-.318-7.897-1.426-11.691.039-.14.717-.866 1.592-1.804 1.855-1.985 4.595-4.917 4.014-5.24l-4.932-8.714c.04-.67-3.943.182-6.605.752-1.241.266-2.195.47-2.32.43-2.681-2.905-5.817-5.352-9.286-7.247-.072-.126-.106-1.119-.149-2.401-.092-2.717-.229-6.732-.868-6.549l-9.649-2.673c-.445-.502-2.657 2.915-4.137 5.201-.691 1.068-1.223 1.89-1.34 1.949-3.95-.16-7.899.324-11.693 1.434-.139-.038-.863-.714-1.797-1.587-1.985-1.854-4.923-4.599-5.247-4.018l-8.714 4.932c-.669-.04.181 3.933.751 6.595.267 1.246.472 2.204.431 2.329-2.905 2.682-5.352 5.819-7.247 9.288-.123.07-1.1.103-2.366.146-2.718.093-6.77.231-6.584.87zm41.035-2.785c12.898-3.178 18.03 15.591 5.327 19.41-12.862 3.272-17.98-15.728-5.327-19.41zm-9.331-11.76c.738-.417 1.497-.798 2.274-1.139 18.324-8.586 39.588 9.654 33.81 29.107-4.92 20.752-34.991 24.814-45.223 6.106-.483-.823-.919-1.672-1.305-2.545-.777-.816-3.844-13.074-.992-10.84-.84 17.745 19.396 30.472 34.899 21.547 16.324-8.322 16.111-33.286-.071-41.436-8.206-4.593-19.539-3.552-26.852 3.103-.066.069-.147.121-.237.152-.09.032-.186.041-.281.027-.094-.014-.184-.05-.261-.106s-.14-.129-.183-.214c-.282-.881 2.168-2.373 3.605-3.249.351-.213.641-.39.817-.513z" fill-rule="evenodd"/><path d="m114.265 397.227c-1.033.597-.176 2.093-.159 3.031.043.221.171.416.357.542.187.127.415.174.637.133 1.326-.398.301-2.081.348-3.039-.018-.131-.065-.255-.139-.364s-.172-.199-.287-.264c-.115-.064-.243-.101-.374-.108-.132-.007-.263.016-.383.069z"/><path d="m171.918 411.457c.172-.055.353-.075.533-.06s.355.065.515.148c.161.083.303.196.42.334.116.138.205.297.259.469.45 1.405.968 2.811 1.539 4.179.14.337.14.715.002 1.053-.139.337-.406.605-.742.746-2.218.847-2.693-3.732-3.416-5.14-.111-.347-.079-.724.088-1.048s.455-.569.802-.681zm6.496 11.541c.751 1.277 1.564 2.535 2.418 3.737.105.148.179.314.219.49s.045.358.015.536c-.031.178-.096.348-.192.501-.096.152-.221.285-.368.389-1.982 1.313-3.441-3.032-4.462-4.259-.919-1.519 1.485-2.947 2.375-1.394zm7 9.329c1.014 1.076 2.088 2.118 3.191 3.104.135.119.245.265.323.427.079.163.124.339.135.519.01.18-.015.361-.075.531-.059.17-.152.327-.272.462-1.638 1.725-4.04-2.193-5.301-3.156-1.233-1.276.787-3.204 2.004-1.884zm8.912 7.529c1.23.822 2.51 1.6 3.803 2.313.319.176.555.472.656.822s.06.726-.116 1.046c-1.212 2.045-4.427-1.236-5.873-1.894-1.485-.968.057-3.298 1.535-2.287zm10.367 5.356c1.378.528 2.799 1.003 4.224 1.414.173.05.335.133.476.246.141.112.259.252.346.41s.143.331.163.511c.02.179.004.361-.046.534-.727 2.264-4.594-.229-6.146-.546-1.668-.612-.67-3.231.987-2.569zm11.293 2.93c1.464.209 2.953.358 4.436.444.364.02.705.185.947.457.243.271.368.628.348.992-.209 2.377-4.528.792-6.114.829-1.775-.228-1.366-3.007.388-2.722zm48.151-16.937c.134.12.244.266.322.429s.123.339.133.519c.01.181-.016.361-.076.531-.06.171-.153.327-.273.462-1.234.995-3.532 4.975-5.218 3.295-.249-.266-.383-.62-.371-.984.011-.365.166-.71.432-.96 1.079-1.014 2.124-2.085 3.108-3.186.121-.135.267-.245.43-.323.164-.079.341-.124.522-.134s.362.016.533.076c.17.06.328.154.462.275zm-36.492 17.285c1.472-.122 2.958-.316 4.415-.556.359-.06.727.024 1.024.235s.499.531.56.89c.317 2.356-4.235 1.787-5.775 2.171-1.779.179-1.993-2.625-.224-2.74zm27.759-9.094c1.31 1.985-3.046 3.438-4.278 4.454-.315.184-.691.236-1.044.143-.353-.092-.655-.322-.839-.637s-.236-.69-.143-1.043c.092-.354.321-.655.636-.84 1.277-.749 2.535-1.56 3.744-2.413.149-.104.316-.178.494-.217.177-.04.36-.044.539-.012.178.032.349.098.502.196s.285.225.389.374zm-16.319 6.834c1.407-.447 2.813-.962 4.181-1.529.337-.139.715-.139 1.052 0 .336.139.604.406.744.743.842 2.218-3.732 2.693-5.144 3.406-1.695.571-2.537-2.102-.833-2.616z"/><path d="m115.776 403.57c1.357-.488 1.667 2.971 2.334 3.877.307.58.696 1.439-.101 1.811-.804.342-1.23-.492-1.453-1.128-.255-1.057-2.261-4.013-.78-4.56zm4.696 8.353c.761 1.221 1.595 2.394 2.499 3.513.07.086.123.186.154.293.032.106.042.218.031.329-.012.111-.045.218-.098.316-.054.098-.126.185-.212.255-1.268 1.025-3.064-2.958-3.815-3.803-.593-.931.865-1.849 1.441-.903zm5.414 6.689c1.038.997 2.136 1.928 3.288 2.789.889.646-.146 2.034-1.017 1.359-.781-.819-4.595-2.939-3.472-4.127.157-.162.371-.255.596-.258.226-.004.443.081.605.237zm6.892 5.154c1.25.713 2.542 1.348 3.869 1.902.208.086.372.252.458.46.085.208.085.441-.001.649-.595 1.511-4.12-1.149-5.167-1.537-.962-.529-.111-2.033.841-1.474zm7.943 3.315c1.385.387 2.792.69 4.214.906 1.089.147.833 1.862-.255 1.678-1.054-.342-5.469-.436-5.005-1.993.03-.108.081-.208.149-.296.069-.088.154-.161.251-.216.098-.055.204-.09.315-.104.111-.013.223-.005.331.025zm8.506 1.288c1.436.038 2.873-.013 4.303-.151 1.093-.122 1.268 1.597.159 1.691-1.109-.073-5.411.909-5.341-.715.003-.111.029-.221.075-.323.047-.102.112-.194.194-.27s.178-.136.282-.175c.105-.039.216-.058.328-.054zm8.556-.832c1.403-.316 2.785-.718 4.138-1.204.212-.076.445-.064.649.032s.36.269.436.481c.547 1.542-3.815 1.922-4.851 2.347-1.071.258-1.443-1.436-.369-1.656zm12.992-4.85c.835 1.365-2.726 2.499-3.608 3.185-.526.352-1.31.613-1.668-.105-.352-.694.294-1.169.876-1.397 1.107-.581 2.183-1.22 3.222-1.916.093-.063.198-.107.308-.13.11-.022.224-.023.334-.001.111.021.216.065.309.127.094.063.174.144.236.237z"/><path d="m135.85 359.635c1.076-.262 4.816-2.466 5.239-.903.061.216.034.448-.075.644-.108.197-.29.343-.506.406-1.359.391-2.694.864-3.996 1.417-1.008.445-1.682-1.149-.662-1.564zm-2.823 2.294c.055.097.091.204.105.314.014.111.006.223-.023.331-.03.107-.08.208-.149.296-.068.088-.153.162-.25.217-1.228.705-2.412 1.483-3.546 2.329-.181.135-.407.192-.63.16-.223-.033-.424-.152-.558-.333-.973-1.304 3.023-2.916 3.888-3.628.097-.056.204-.092.314-.106.111-.015.224-.007.332.022s.209.079.298.147c.089.069.163.154.219.251zm11.353-4.745c1.109 0 5.271-1.228 5.303.389.008.225-.073.444-.227.609-.153.165-.366.263-.591.271-1.413.051-2.823.188-4.22.409-1.09.188-1.35-1.528-.265-1.678zm-18.423 9.772c.077.081.138.176.178.279.041.104.061.215.058.327-.002.111-.026.221-.071.323-.045.103-.11.195-.19.272-1.022.978-1.983 2.019-2.877 3.115-.145.169-.349.274-.57.294-.221.019-.441-.048-.613-.189-.172-.14-.282-.342-.307-.562-.024-.221.038-.442.174-.617.85-.739 3.082-4.41 4.218-3.242zm27.289-10.089c1.068.272 5.412.076 5.053 1.654-.023.109-.067.213-.13.305-.062.092-.143.171-.236.232s-.198.103-.307.124c-.11.021-.223.019-.332-.004-1.384-.292-2.784-.498-4.194-.617-1.101-.08-.945-1.803.146-1.694zm8.684 1.82c.994.537 5.211 1.342 4.514 2.813-.098.203-.272.359-.485.434-.212.075-.446.062-.649-.035-1.276-.613-2.587-1.148-3.926-1.604-1.048-.339-.492-1.978.546-1.608zm8 3.847c.836.759 4.74 2.554 3.707 3.815-.071.086-.158.158-.257.21-.098.052-.206.085-.317.095-.111.011-.224-.001-.33-.033-.107-.033-.206-.087-.292-.158-1.092-.902-2.237-1.736-3.43-2.498-.93-.578 0-2.036.919-1.431z"/><path d="m119.497 373.516c-.712.5-1.003 1.492-1.479 2.194-.543.95.97 1.79 1.488.819.328-.597.681-1.198 1.051-1.784.461-.678-.344-1.581-1.06-1.229z"/><path d="m154.827 392.403c-.621-2.463-3.37-4.028-5.805-3.305-2.489.633-4.056 3.42-3.284 5.879 1.814 5.864 10.612 3.419 9.089-2.573z"/><path clip-rule="evenodd" d="m122.88 389.321c-.314.275 1.856 1.683 3.288 2.612.656.426 1.157.751 1.194.821-.1 2.476.203 4.951.899 7.329-.839.982-1.511 1.708-2.032 2.27-.961 1.038-1.407 1.52-1.432 2.023-.022.435.27.886.815 1.726.526.811 1.287 1.985 2.227 3.857-.021.418 2.472-.115 4.139-.471.778-.167 1.376-.294 1.454-.269 1.681 1.82 3.648 3.354 5.823 4.542.039.076.059.662.086 1.429.06 1.701.15 4.293.547 4.181 2.048.461 3.373.914 4.288 1.227.952.325 1.46.499 1.874.371.474-.146.827-.687 1.582-1.844.423-.648.971-1.488 1.737-2.561 2.476.101 4.952-.203 7.33-.898.981.838 1.707 1.51 2.269 2.031 1.039.961 1.52 1.407 2.023 1.433.435.022.886-.27 1.728-.816.811-.525 1.984-1.286 3.857-2.227.417.022-.117-2.477-.473-4.144-.166-.776-.294-1.371-.269-1.45 1.82-1.681 3.355-3.647 4.542-5.821.077-.04.668-.061 1.439-.088 1.702-.059 4.283-.149 4.172-.546.46-2.047.913-3.373 1.226-4.288.325-.952.499-1.459.371-1.874-.146-.474-.686-.826-1.844-1.582-.647-.422-1.488-.971-2.561-1.737.101-2.476-.202-4.951-.898-7.329.839-.982 1.511-1.708 2.032-2.271.961-1.038 1.407-1.52 1.432-2.023.022-.435-.27-.885-.815-1.726-.526-.811-1.287-1.985-2.228-3.857.022-.418-2.478.117-4.145.473-.775.166-1.369.293-1.448.268-1.68-1.819-3.646-3.352-5.819-4.541-.039-.076-.06-.661-.086-1.428-.06-1.701-.15-4.293-.548-4.182-2.046-.461-3.372-.914-4.286-1.227-.953-.325-1.461-.499-1.875-.371-.474.146-.827.686-1.582 1.843-.422.648-.971 1.488-1.738 2.561-2.475-.1-4.951.204-7.329.9-.977-.836-1.701-1.507-2.263-2.028-1.04-.963-1.522-1.41-2.026-1.436-.436-.022-.888.27-1.732.817-.812.526-1.985 1.286-3.856 2.226-.417-.022.117 2.476.473 4.143.166.775.293 1.37.269 1.449-1.821 1.681-3.355 3.647-4.543 5.821-.076.042-.681.063-1.468.091-1.702.059-4.255.148-4.142.543zm25.692-1.862c8.215-2.039 11.512 9.923 3.399 12.387-8.234 2.025-11.5-9.95-3.399-12.387zm-5.062-8.165c.192-.097.352-.177.468-.239 11.724-5.628 25.735 6.38 21.835 18.914-3.384 13.515-22.77 15.893-29.328 3.609-1.426-2.515-2.142-5.371-2.072-8.262.005-1.105 1.752-1.054 1.697.041-.219 16.704 23.439 20.21 28.068 4.161 2.711-8.838-4.711-18.435-13.901-18.118-2.427.019-4.809.66-6.917 1.862-.401.117-.872.511-1.355.915-.84.704-1.716 1.438-2.319.787-1.005-1.244 2.344-2.927 3.824-3.67z" fill-rule="evenodd"/></g><path d="m144.955 374.072c-1.392 81.633-122.8215 81.62-124.203 0 1.3879-81.64 122.822-81.621 124.203 0z" fill="#fee9d1"/><path d="m114.191 341.035s30.37 28.955 61.716 20.646l3.283 3.97s-38.815 23.429-72.805-3.189z" fill="#116e95"/><path d="m84.9474 435.511s-28.5535-22.233-34.2889-59.331c-3.5648-37.931 32.9549-46.024 63.5335-35.146 0 0-14.9837 36.265 4.233 84.837.005 0-20.7615 12.006-33.4776 9.64z" fill="#116e95"/><path d="m78.8806 314.774-5.7512 21.427c-.2614.974-.1636 2.01.2753 2.918s1.1897 1.629 2.1155 2.03c3.8468 2.235 15.2479 2.97 16.0116-4.619l1.1899-17.853z" fill="#fdbab9"/><path d="m136.205 96.9826c-1.394 81.6334-122.8234 81.6204-124.205 0 1.3942-81.633 122.822-81.6204 124.205 0z" fill="#fee9d1"/><path d="m450.237 96.9826c-1.395 81.6334-122.824 81.6204-124.205 0 1.386-81.633 122.814-81.6204 124.205 0z" fill="#fee9d1"/><path d="m437.1 389.15c-1.394 81.633-122.821 81.62-124.203 0 1.401-81.633 122.822-81.621 124.203 0z" fill="#fee9d1"/><path d="m97.0204 84.5997c3.1686-.7161 15.1356 38.7123 50.7836 17.6703l2.771 6.509s-29.935 31.242-55.2942.792z" fill="#fdbab9"/><path d="m172.043 111.44c-.091-.693-.337-1.356-.72-1.94-.383-.585-.892-1.076-1.49-1.437l-11.827-7.129c.523-2.979 6.168-1.2679 6.006-6.246-2.376.9665-14.587 2.6459-17.55 8.697l2.564 4.81c7.418 3.599 15.232 5.325 23.342 5.68z" fill="#fdbab9"/><path d="m49.6048 83.4093c-1.0885.4753 5.4011 42.4077-1.6541 69.9437 0 0 12.0412 6.29 26.1516 5.731 0 0 25.3895-39.016 26.0537-43.48.752-5.061-3.1358-31.0064-3.1358-31.0064s-20.5366-12.8081-47.4154-1.1883z" fill="#fa541c"/><path d="m82.2699 101.065c12.5482.426 13.5464-10.327 12.8334-17.4962-4.1194-2.0265-14.6111-6.206-28.4743-4.7135-.2582 6.1204.5751 21.6997 15.6409 22.2097z" fill="#fdbab9"/><path d="m85.9897 60.0922s-6.2329 13.1709-9.8738 18.7241c-.5191.7864-.7277 1.7375-.5855 2.669.1423.9314.6253 1.7769 1.3555 2.3725 1.7238 1.7729 11.2364 5.4882 12.8144-.1506l4.1082-15.0515z" fill="#fdbab9"/><path d="m107.308 49.2438s2.886 6.667-.506 16.7943c-6.535 18.9554-19.8837 6.686-21.0719-7.6541-.5625-9.1735 17.6019-17.5722 21.5779-9.1402z" fill="#fdbab9"/><path d="m92.5823 57.7938s6.1236-13.7175 15.3097-5.1714l.708 3.53c16.376-5.4867-2.232-27.6108-16.8114-18.5831-13.7207 5.6483-16.075 26.2023-6.1157 23.1508 0 0 1.0393-5.306 3.5807-6.2487 2.5413-.9427 2.4858 3.0736 2.4858 3.0736z" fill="#b3200e"/><path d="m90.4773 57.964c4.7167-10.1526-7.9979-10.3285-3.0372 2.0597z" fill="#fdbab9"/><path d="m87.9403 42.6522c2.5033-.3042 3.5094-3.3969 1.8078-5.257-18.7146-23.6926-47.6895 15.8437-60.3882 13.1899-2.684-.7209-5.0193 1.9377-3.7518 4.4109.9379 1.8284 2.8518 3.7391 6.3755 5.4787 27.2099 13.4276 41.276-16.0338 55.9567-17.8225z" fill="#b3200e"/><path d="m375.944 78.8997s-23.803 43.0443-57.907 46.1593l-1.817 5.135s46.994 9.178 71.067-29.536z" fill="#116e95"/><path d="m338.982 359.397s-7.459 19.598 6.163 29.708c13.623 10.11 35.433-14.993 35.433-14.993l-12.055 30.875c-29.425 14.598-51.532-25.417-38.065-47.225 0 0-11.509-5.528-4.682-16.697.104-.169.257-.303.438-.384.181-.082.382-.107.578-.073.195.034.376.126.519.264.142.138.24.316.281.51 1.847 12.899 13.006 11.238 11.39 18.015z" fill="#fdbab9"/><path d="m362.109 257.673c-5.658.302-9.945-5.387-8.055-10.834 2.665-7.739 3.96-15.883 3.826-24.067-.316-21.818-18.732-37.202-42.564-32.3-23.616 4.858-28.062 26.132-24.619 36.149 1.8 5.228 8.047 14.153 13.625 21.495 3.896 5.135.634 12.627-5.632 12.965l-63.105 3.39-3.302-55.796c-.277-4.682-5.344-7.206-8.952-4.457-6.073 4.628-15.672 8.758-29.274 5.835-25.864-5.555-25.959-30.144-21.693-42.518 3.599-10.443 27.807-24.222 46.311-12 3.926 2.594 9.031-.528 8.742-5.42l-3.509-70.4174c-87.861 7.4243-153.863 92.5894-137.8973 180.6674l60.3993.719c2.727.055 4.105 3.02 2.283 4.875-3.486 3.546-6.928 9.33-6.306 18.108 4.372 42.09 76.235 6.813 38.478-23.401l54.23 1.088.361 42.574c.04 4.663 5.704 7.575 9.801 5 55.919-25.369 56.168 66.385-1.806 37.866-4.202-2.045-9.08.751-9.045 5.154l.299 36.802c79.536 2.285 147.047-56.434 157.756-133.106z" fill="#22b8cf"/><path d="m243.451 347.193c20.77 10.988 45.929 5.07 43.684-22.328-1.036-12.648-20.934-28.695-41.878-15.536-4.099 2.574-9.761-.338-9.801-5.001l-.361-42.573-54.23-1.089c37.749 30.227-34.102 65.49-38.471 23.4-.623-8.776 2.823-14.561 6.305-18.106 1.822-1.856.444-4.82-2.283-4.876l-60.3989-.719c12.2551 71.815 73.8669 126.796 148.6949 128.782l-.3-36.801c-.041-4.403 4.837-7.2 9.039-5.153z" fill="#fa541c"/><path d="m218.674 155.544c-18.503-12.221-42.711 1.558-46.311 12-12.033 30.282 21.982 56.919 50.963 36.683 3.606-2.749 8.673-.225 8.95 4.457l3.302 55.797 63.105-3.391c6.267-.337 9.529-7.83 5.633-12.965-5.572-7.342-11.819-16.26-13.626-21.495-7.904-55.453 88.883-48.957 63.356 20.218-1.888 5.452 2.399 11.137 8.057 10.834l30.351-1.632c11.476-75.487-37.074-148.93-107.162-170.0023-.06.0186-.122.0329-.185.0428-18.966-6.282-40.759-8.3354-61.206-6.3819l3.51 70.4174c.294 4.885-4.81 8.006-8.737 5.418z" fill="#fa541c"/><path d="m238.899 390.004c-1.575 0-3.327-.03-4.984-.078l-.305-37.571c-.144-5.032 5.845-8.199 10.19-5.874 20.489 10.346 44.192 6.048 42.541-21.547-3.168-15.737-21.49-26.319-40.661-14.929-4.244 2.918-11.146-.414-11.021-5.668l-.353-41.799-51.213-1.028c25.825 22.623-8.18 52.701-32.058 39.594-12.2-6.379-11.65-28.773-2.909-35.699.279-.268.471-.614.551-.993.079-.379.043-.773-.104-1.13-.27-.661-.984-1.374-2.184-1.399l-61.0564-.726c-17.3093-86.882 51.0234-176.2975 139.3294-182.3276l3.549 71.2486c.158 2.629-1.122 5.059-3.327 6.338-1.013.598-2.176.896-3.351.859-1.176-.037-2.317-.408-3.291-1.068-17.586-10.631-38.315-1.558-45.12 11.593-2.49 7.229-3.53 18.985 1.743 28.328 7.827 16.522 38.383 17.241 47.984 7.461.894-.697 1.962-1.133 3.088-1.261 1.125-.127 2.264.058 3.291.537 2.218 1.022 3.701 3.232 3.852 5.77l3.254 55.005 62.316-3.348c2.564-.138 4.753-1.649 5.863-4.042 4.753-12.388-26.607-23.924-11.649-51.31 7.006-15.961 39.21-22.022 53.384-8.693 15.175 11.456 14.394 34.317 8.565 50.858-1.789 4.655 2.282 10.194 7.26 9.777l31.312-1.681c-8.985 75.318-78.496 136.098-154.486 134.803zm-3.403-1.632c77.209 1.811 144.837-55.278 156.038-131.48l-29.382 1.584c-6.076.498-11.023-6.204-8.849-11.883 2.639-7.65 3.919-15.703 3.782-23.795 0-22.066-20.094-36.483-41.609-31.529-19.975 4.11-27.726 20.842-24.027 35.109 1.426 4.164 6.102 11.52 13.501 21.272 4.278 5.198.622 14.101-6.224 14.242l-62.806 3.373.333 39.072c-.085 4.048 5.333 6.571 8.581 4.332 12.759-8.017 23.626-4.729 28.969-2.06 17.152 7.555 17.928 29.588 6.854 40.704-9.282 9.649-26.564 5.896-37.55.607-3.327-1.789-8.015.545-7.899 4.436zm-148.8104-128.792 59.7304.71c1.656.034 3.045.951 3.633 2.389.264.647.329 1.357.188 2.041s-.482 1.31-.98 1.8c-8.055 6.352-8.731 27.378 2.606 33.226 25.509 12.578 56.245-19.171 26.662-39.926l56.042 1.126-3.091-52.225c-.117-1.979-1.21-3.63-2.926-4.416-.765-.357-1.615-.495-2.454-.399s-1.635.423-2.299.944c-10.181 10.31-42.117 9.468-50.337-7.95-5.53-9.801-4.457-22.086-1.859-29.628 7.095-14.115 28.863-23.621 47.503-12.406.728.495 1.581.773 2.46.801.88.028 1.749-.195 2.507-.642 1.687-.973 2.662-2.839 2.535-4.871l-3.468-69.5882c-88.064 8.0312-151.6005 91.9062-136.4524 179.0142z" fill="#fff"/><path d="m234.705 389.945c-73.977-1.917-138.1109-56.893-149.3013-130.096.4579-.865 60.3643.744 61.0173.439 1.654.034 3.043.951 3.631 2.39.264.646.329 1.356.188 2.04s-.482 1.31-.98 1.8c-8.039 6.364-8.747 27.364 2.606 33.226 23.693 12.358 55.523-17.341 28.5-38.454-.588-.433-.228-1.468.513-1.426l54.23 1.09c.208.003.406.088.552.236s.228.348.228.556l.362 42.574c.015 1.826 1.06 3.485 2.797 4.436 1.854 1.014 4.07.976 5.783-.102 12.76-8.017 23.627-4.729 28.97-2.059 17.148 7.551 17.932 29.591 6.854 40.704-9.289 9.644-26.557 5.9-37.55.606-3.656-1.977-8.205 1.11-7.899 4.437 0 .752.299 36.792.298 36.82-.005.209-.092.408-.241.554s-.349.228-.558.229zm-147.7471-128.771c12.6655 71.548 74.2371 124.839 146.9441 127.153l-.292-35.974c-.147-5.027 5.847-8.202 10.189-5.875 10.384 4.969 26.919 8.807 35.741-.317 10.322-10.393 9.683-31.012-6.45-38.144-19.464-9.255-26 6.438-34.804 2.131-2.25-1.232-3.606-3.408-3.627-5.819l-.353-41.799-51.213-1.028c25.825 22.623-8.18 52.701-32.058 39.593-12.2-6.378-11.652-28.772-2.909-35.699.277-.267.469-.612.548-.989.08-.378.044-.77-.102-1.127-.269-.661-.983-1.374-2.183-1.399z" fill="#fff"/><path d="m235.578 265.267c-.203 0-.398-.077-.545-.217-.148-.139-.236-.33-.247-.533l-3.302-55.795c-.117-1.979-1.21-3.63-2.926-4.415-5.995-2.502-12.151 11.529-34.672 6.529-21.477-3.055-28.606-27.554-22.27-43.558 7.087-14.113 28.857-23.619 47.497-12.407 3.347 2.328 7.899-.743 7.509-4.71.687-.832-4.964-71.2429-2.792-71.254 20.667-1.952 41.745.0412 61.413 6.3375 63.934 18.9635 110.509 82.0525 109.566 148.8465-.003 7.382-.524 14.755-1.559 22.064-.025.183-.114.351-.25.476s-.312.198-.496.207l-30.359 1.63c-6.074.496-11.022-6.201-8.848-11.883 2.639-7.65 3.919-15.703 3.782-23.795 0-22.069-20.095-36.482-41.609-31.529-19.981 4.119-27.715 20.836-24.027 35.11 1.426 4.163 6.101 11.519 13.5 21.271.997 1.309 1.616 2.865 1.793 4.501.176 1.635-.097 3.288-.791 4.779-1.361 2.936-4.061 4.791-7.225 4.962-.036-.008-63.102 3.384-63.142 3.383zm-8.958-62.987c3.41-.02 6.298 2.889 6.452 6.347l3.254 55.005 62.316-3.348c2.564-.138 4.753-1.649 5.863-4.042.571-1.229.796-2.59.65-3.938-.145-1.347-.656-2.629-1.476-3.708-7.605-10.026-12.23-17.333-13.736-21.717-9.464-54.791 90.388-52.723 64.86 20.22-1.787 4.655 2.284 10.194 7.262 9.777l29.697-1.595c15.4-96.124-70.493-185.6885-167.022-174.8625l3.469 69.6555c.514 5.215-5.602 9.21-9.981 6.125-17.587-10.633-38.321-1.556-45.12 11.593-11.84 33.603 24.352 53.97 49.727 35.791 1.083-.841 2.414-1.299 3.785-1.303z" fill="#fff"/><path d="m385.992 159.422s-24.257-70.8454-6.884-84.5771c0 0 26.035-4.2002 44.967 2.9802v69.7959s-17.555 16.303-38.083 11.801z" fill="#116e95"/><path d="m384.263 62.0631s3.383 8.2149 4.245 14.6728c.124.9228.541 1.7813 1.191 2.4486.649.6674 1.496 1.1081 2.415 1.2572 3.511.8239 16.712 1.0061 15.62-5.9493-1.679-4.7008-10.409-24.2741-15.167-27.2749z" fill="#fdbab9"/><path d="m395.522 126.601c-5.862 6.813-12.429 17.466-22.142 19.768-5.228-8.335-11.695-9.142-19.763-.231-.167.172-.291.38-.363.608-.073.228-.091.47-.054.707.037.236.128.461.267.656.139.196.321.356.532.469l9.506 5.103s28.714 1.613 43.428-13.686c-2.61-9.528-7.662-13.052-11.411-13.394z" fill="#fdbab9"/><path d="m424.075 77.8241c-13.95 4.9464-14.545 29.9289-14.545 29.9289s-10.786 13.169-21.365 25.608c-1.605 2.353 9.749.187 13.065 10.693 41.601-18.379 23.274-67.6764 22.845-66.2299z" fill="#116e95"/><path d="m369.011 41.355c0 .4088 9.135 25.8601 9.135 25.8601l14.418-5.5247-5.07-25.4086s-18.483-1.7729-18.483 5.0732z" fill="#fdbab9"/><path d="m384.96 42.4699 3.719 13.1661c.189 1.4354.036 5.1682-3.961 4.7816-3.414-.4563-6.539-.8223-8.525.1125-.432.2009-.773.5566-.955.9966-.182.4401-.193.9326-.029 1.38.83 2.3116 2.798 7.4877 5.193 11.7243.235.4155.617.7277 1.071.8744.454.1468.947.1174 1.38-.0822 1.008-.6876 13.309-5.7038 13.043-9.1086-.634-3.3683-2.516-13.6113-2.599-16.5471.012-3.9942 4.369-4.7024 5.261-6.8381 1.611-8.2815-6.313-4.7975-5.883-8.9486.432-2.1214.294-5.2426-3.733-6.3913-6.906-1.8933-7.13 5.051-10.351 3.8183-.475-.217-1.068-.2265-1.695.3026-.203.1654-.439.2863-.692.3552-.253.0688-.518.0841-.777.0447-.26-.0394-.508-.1325-.729-.2734s-.41-.3264-.556-.5447c-6.378-7.7983-16.42 2.3543-10.849 11.3789 2.387 4.0845 9.322 1.3974 12.605-1.3087 2.478-2.0803 8.224-1.0726 9.062 1.1075z" fill="#063963"/><path d="m393.884 54.6579s-3.128-7.3879-.579-9.6789c8.133-5.7782 7.761 12.4214.579 9.6789z" fill="#fdbab9"/><path d="m369.378 332.728s-4.676-18.41 16.694-14.129c0 0 10.254-1.987 11.066 7.723 0 0 6.77 4.18 2.154 12.74 25.048-12.21 46.858 27.522 21.893 38.366 15.354 9.907-10.902 28.919-24.817 15.452 0 0-26.947 4.371-26.968-14.753-19.885-13.496 19.538-34.546-.022-45.399z" fill="#b3200e"/><path d="m369.478 375.717c4.227-1.405 16.577-4.132 28.71 6.423 1.011.877 1.763 2.015 2.172 3.289.41 1.274.462 2.636.151 3.938-2.828 11.775-10.422 42.82-2.643 57.538 0 0-14.46 9.095-27.843 4.347 0 0-6.029-24.483-14.678-36.353-5.718-7.916 8.465-35.238 14.131-39.182z" fill="#fa541c"/><path d="m380.572 352.162s6.833 17.657 7.54 25.508c0 0-6.879 3.376-13.607-1.781 0 0-1.213-17.802-2.303-20.964z" fill="#fdbab9"/><path d="m371.093 328.092s-15.82 23.577-5.76 29.993c10.061 6.417 21.323-10.339 21.323-10.339 3.674-14.212.947-21.644-15.563-19.654z" fill="#fdbab9"/><path d="m378.567 322.347c-15.793 4.815-6.304 10.745 5.769 11.83l3.075 13.762c4.679-7.111 10.961-29.289-8.844-25.592z" fill="#b3200e"/><path d="m383.408 346.141c11.021-13.051 13.495 7.38.415 3.511z" fill="#fdbab9"/><path d="m303.6 352.189s2.8 3.7 4.375 3.633c4.078-.171 11.534.208 14.56 3.145 4.194 4.07 6.467 16.636 10.599 26.887s21.595 21.919 32.497 17.512c10.902-4.408 16.85-23.986 27.212-24.606 10.362-.619 9.899 17.798 1.171 24.046-40.69 34.483-74.404 6.94-75.575-35.125-7.831-3.398-13.936-4.664-14.839-15.492z" fill="#fdbab9"/><path d="m46.4033 96.7972c2.2894 49.4938 15.9562 62.9958 64.7407 51.4018l-1.143-7.318s-35.9552.404-40.7606-6.794c-3.5237-5.279-3.6758-18.678-3.248-25.329.2123-3.305-8.0692-27.1074-16.3871-25.3503-2.3275 2.6506-3.3224 7.2168-3.202 13.3895z" fill="#fdbab9"/><path d="m109.713 150.777c-4.105-17.123 2.895-17.573 16.129-12.68 0 0-.282 3.454-3.882 2.34l2.233 1.727s-.317 2.766-3.361 1.288l2.074 2.291s-1.305 2.272-3.543.814c-2.237-1.457-3.306 5.119-9.65 4.22z" fill="#fdbab9"/><path d="m166.573 375.771s-57.671 8.474-81.0916-17.83c-24.0824-18.319-40.2905 4.788-16.4331 19.656 0 0 44.2737 40.727 96.5147 4.029z" fill="#116e95"/><path d="m165.563 381.631s7.288-1.144 6.021-8.023c-1.341-7.245 7.654-8.873 3.802-14.636-2.993-1.696-14.576 6.584-12.543 18.719z" fill="#fdbab9"/><path d="m91.9379 293.771s13.3181 21.57 4.9622 29.016c-8.3559 7.447-23.0494-12.627-23.0494-12.627s-3.9752-24.398 18.0872-16.389z" fill="#fdbab9"/><path d="m78.881 314.77c-4.0132 9.042-19.7919-2.299-8.6474-8.676-4.8371-.58-2.7077-7.446 1.315-6.195-9.4318-23.681 27.1988-27.251 26.5999-9.553-.1584 3.01-5.9588 9.422-15.7755 8.49 6.2044 3.961-3.4967 11.305-5.3679 12.162z" fill="#063963"/><path d="m82.2715 313.82s-4.1526-6.654-6.949-2.851c-3.6044 4.89 5.8622 5.84 5.8622 5.84z" fill="#fdbab9"/></svg>